<?xml version="1.0" standalone="no"?>
<!DOCTYPE svg PUBLIC "-//W3C//DTD SVG 20010904//EN"
 "http://www.w3.org/TR/2001/REC-SVG-20010904/DTD/svg10.dtd">
<svg version="1.0" xmlns="http://www.w3.org/2000/svg"
 width="231.000000pt" height="231.000000pt" viewBox="0 0 231.000000 231.000000"
 preserveAspectRatio="xMidYMid meet">
<metadata>
Created by potrace 1.11, written by Peter Selinger 2001-2013
</metadata>
<g transform="translate(0.000000,231.000000) scale(0.100000,-0.100000)"
fill="#000000" stroke="none">
<path d="M2 1903 l3 -148 185 -1 c263 -1 263 -1 368 -128 36 -44 69 -83 72
-86 3 -3 27 -32 55 -65 88 -106 83 -102 93 -74 26 67 44 185 38 243 -7 78 -63
190 -129 262 -97 107 -217 140 -510 143 l-178 2 3 -148z"/>
<path d="M1367 2038 c22 -29 208 -256 238 -290 l32 -38 186 0 187 0 0 -52 c0
-29 1 -276 1 -549 1 -493 1 -497 23 -520 11 -13 59 -69 106 -124 47 -55 95
-111 107 -125 12 -14 31 -36 42 -50 l20 -25 1 893 0 892 -476 0 c-380 0 -474
-3 -467 -12z"/>
<path d="M1340 1480 c-5 -462 -36 -674 -119 -807 -26 -42 -77 -73 -120 -73
-11 0 -27 -3 -35 -6 -14 -5 -14 -8 -3 -18 7 -6 38 -40 68 -76 29 -36 56 -67
59 -70 3 -3 34 -39 69 -80 35 -41 67 -76 71 -78 16 -6 109 110 148 185 38 73
74 190 87 279 3 21 8 50 10 64 3 14 7 45 10 70 3 25 8 61 10 80 9 66 18 325
19 500 l1 175 -137 0 -136 1 -2 -146z"/>
<path d="M164 1310 l-29 -5 0 -130 0 -130 119 -2 c66 -1 140 -7 165 -14 48
-14 102 -61 198 -174 134 -159 202 -234 206 -227 26 43 37 248 17 322 -29 108
-101 191 -194 223 l-38 13 43 34 c24 18 54 46 67 62 l24 28 -24 1 c-106 4
-530 3 -554 -1z"/>
<path d="M2 410 l3 -144 180 -1 c165 0 267 7 305 22 8 3 20 7 26 8 42 9 137
63 167 93 44 47 119 154 112 161 -3 3 -184 5 -401 6 l-395 0 3 -145z"/>
</g>
</svg>
