<?xml version="1.0" standalone="no"?>
<!DOCTYPE svg PUBLIC "-//W3C//DTD SVG 20010904//EN"
 "http://www.w3.org/TR/2001/REC-SVG-20010904/DTD/svg10.dtd">
<svg version="1.0" xmlns="http://www.w3.org/2000/svg"
 width="260.000000pt" height="260.000000pt" viewBox="0 0 260.000000 260.000000"
 preserveAspectRatio="xMidYMid meet">
<metadata>
Created by potrace 1.11, written by Peter Selinger 2001-2013
</metadata>
<g transform="translate(0.000000,260.000000) scale(0.100000,-0.100000)"
fill="#000000" stroke="none">
<path d="M1560 2465 l0 -136 -51 53 c-159 165 -202 208 -212 208 -5 0 -23 -15
-40 -32 -42 -46 -518 -541 -781 -813 l-115 -120 -1 -162 0 -163 103 106 c56
59 125 130 152 158 67 69 435 452 573 596 l111 115 115 -120 c63 -66 115 -122
116 -125 0 -5 -41 -48 -344 -363 -205 -213 -240 -250 -491 -512 -99 -104 -215
-225 -257 -269 l-78 -81 0 -157 c0 -87 3 -158 6 -158 3 0 58 55 122 122 64 67
135 141 157 163 22 23 126 131 230 240 105 110 206 215 225 235 31 32 286 298
509 530 l81 85 116 -119 115 -119 -63 -65 c-98 -101 -130 -134 -328 -341 -102
-106 -207 -217 -235 -245 -27 -29 -131 -137 -230 -241 -99 -103 -209 -218
-245 -255 -36 -37 -146 -152 -245 -255 -99 -103 -186 -194 -193 -201 -6 -7
-12 -15 -12 -18 0 -4 420 -5 933 -4 l932 3 1 654 1 654 -121 -125 c-67 -69
-200 -207 -296 -308 -96 -101 -191 -199 -210 -219 -19 -20 -114 -119 -210
-220 -96 -101 -181 -190 -188 -197 -10 -11 -50 -14 -164 -14 l-151 0 19 22
c10 12 33 36 49 53 40 42 351 368 395 415 19 20 109 115 200 210 91 95 183
192 205 215 22 24 114 120 205 215 221 231 250 263 250 275 0 6 -10 20 -22 32
-25 21 -367 377 -397 412 -17 20 -19 42 -18 269 l1 247 -112 3 -112 3 0 -136z
m457 -1970 l1 -265 -249 0 c-137 0 -249 2 -249 4 0 5 15 22 215 231 78 83 173
183 210 223 38 39 69 72 70 72 1 0 2 -119 2 -265z"/>
</g>
</svg>
