<svg width="136" height="59" viewBox="0 0 136 59" fill="none" xmlns="http://www.w3.org/2000/svg">
<path fill-rule="evenodd" clip-rule="evenodd" d="M40.0058 21.2963L30.4992 11.4V0.678223H25.7992V6.50742L20.1995 0.678223L0.199463 21.4979V28.3702L20.1995 7.61072L25.2134 12.8302L0.199463 38.9033V45.8851L28.5431 16.2963L33.4385 21.3923C21.7617 33.5689 10.1944 45.6218 0.199463 56.0622H20.1995H40.1995V28.0285L18.0766 51.1508H11.5614L40.0058 21.2963ZM35.4995 39.8125L24.7292 51.1508H35.4995V39.8125Z" fill="#FFC32D"/>
<path d="M56.2223 21.8275H58.9631C59.0743 21.8275 59.1439 21.7598 59.1439 21.6514V20.08C59.1439 19.9716 59.0743 19.9039 58.9631 19.9039H51.2279C51.1166 19.9039 51.0471 19.9716 51.0471 20.08V21.6514C51.0471 21.7598 51.1166 21.8275 51.2279 21.8275H53.9825V29.3323C53.9825 29.4407 54.0521 29.5084 54.1633 29.5084H56.0415C56.1528 29.5084 56.2223 29.4407 56.2223 29.3323V21.8275ZM60.9942 19.9039C60.8828 19.9039 60.8133 19.9716 60.8133 20.08V29.3323C60.8133 29.4407 60.8828 29.5084 60.9942 29.5084H65.0425C67.2267 29.5084 68.5066 28.506 68.5066 26.8127C68.5066 25.4309 67.5885 24.8348 67.0737 24.6452C66.8651 24.5639 66.8789 24.442 67.0876 24.3607C67.4632 24.1846 68.2005 23.6698 68.2005 22.4777C68.2005 20.8657 66.9206 19.9039 64.7782 19.9039H60.9942ZM63.067 23.6157V21.8275H64.7782C65.5156 21.8275 65.9329 22.1526 65.9329 22.708C65.9329 23.3176 65.5156 23.6157 64.6113 23.6157H63.067ZM63.067 27.5983V25.5257H64.7643C65.7799 25.5257 66.239 25.8779 66.239 26.6094C66.239 27.2191 65.7938 27.5983 65.0147 27.5983H63.067ZM74.4191 19.7549C71.6646 19.7549 69.9813 21.6514 69.9813 24.6994C69.9813 27.7338 71.6646 29.6574 74.4191 29.6574C77.1598 29.6574 78.8431 27.7338 78.8431 24.6994C78.8431 21.6514 77.1598 19.7549 74.4191 19.7549ZM74.4191 21.7191C75.7686 21.7191 76.5756 22.8029 76.5756 24.6994C76.5756 26.5553 75.7686 27.7068 74.4191 27.7068C73.0697 27.7068 72.2489 26.5553 72.2489 24.6994C72.2489 22.8029 73.0697 21.7191 74.4191 21.7191ZM87.1209 17.1539C87.1209 17.0456 87.0512 16.9778 86.9399 16.9778H85.6044C85.4931 16.9778 85.4235 17.0456 85.4235 17.1539V17.2352C85.4235 17.5197 85.2845 17.7229 84.9227 17.7229C84.561 17.7229 84.4219 17.5197 84.4219 17.2352V17.1539C84.4219 17.0456 84.3523 16.9778 84.241 16.9778H82.9194C82.8081 16.9778 82.7386 17.0456 82.7386 17.1539V17.3164C82.7386 18.4951 83.4203 19.0369 84.9227 19.0369C86.4252 19.0369 87.1209 18.4951 87.1209 17.3164V17.1539ZM88.8459 29.5084C88.9571 29.5084 89.0268 29.4407 89.0268 29.3323V20.08C89.0268 19.9716 88.9571 19.9039 88.8459 19.9039H86.3695C86.2582 19.9039 86.2027 19.9445 86.1609 20.0393C85.9522 20.5134 85.6879 21.0282 85.4653 21.4752L83.4898 25.3722C83.309 25.7244 83.156 26.0359 82.989 26.3882C82.8777 26.5913 82.7386 26.5101 82.7524 26.334C82.8777 25.4805 82.9055 24.8461 82.9055 23.8707V20.08C82.9055 19.9716 82.8359 19.9039 82.7247 19.9039H80.8327C80.7213 19.9039 80.6517 19.9716 80.6517 20.08V29.33C80.6517 29.4384 80.7213 29.5061 80.8327 29.5061H83.309C83.4203 29.5061 83.4759 29.4655 83.5176 29.3707C83.7402 28.8966 84.0045 28.3818 84.2271 27.9325L86.2165 24.0108C86.3835 23.6608 86.5365 23.3492 86.7173 23.0241C86.8148 22.8074 86.9678 22.8887 86.9399 23.0783C86.8008 23.9182 86.7869 24.5391 86.7869 25.5144V29.3323C86.7869 29.4407 86.8564 29.5084 86.9678 29.5084H88.8459Z" fill="white"/>
<path d="M59.9977 33.0319C60.0667 32.9064 60.0115 32.8228 59.8735 32.8228H57.8583C57.7616 32.8228 57.6926 32.8646 57.6512 32.9482L56.6022 34.9833C56.0638 36.0148 55.2633 36.642 54.4765 36.642H54.2005V33.004C54.2005 32.8925 54.1314 32.8228 54.021 32.8228H52.1438C52.0334 32.8228 51.9644 32.8925 51.9644 33.004V42.5242C51.9644 42.6357 52.0334 42.7054 52.1438 42.7054H54.021C54.1314 42.7054 54.2005 42.6357 54.2005 42.5242V38.6074H54.4903C55.2771 38.6074 56.1053 39.2904 56.6988 40.4194L57.8169 42.58C57.8583 42.6636 57.9273 42.7054 58.0239 42.7054H60.0805C60.2324 42.7054 60.2876 42.6218 60.2185 42.4963L58.6174 39.4577C58.1895 38.6074 57.6098 38.0359 56.8092 37.6735C56.7126 37.6317 56.7402 37.5341 56.8092 37.5062C57.5546 37.2135 58.1067 36.7117 58.5346 35.8614L59.9977 33.0319ZM63.0757 41.3952H67.1338L67.5479 42.566C67.5893 42.6636 67.6583 42.7054 67.755 42.7054H69.7011C69.8392 42.7054 69.8944 42.6218 69.853 42.4963L67.9068 37.1717C67.3961 35.7499 66.9406 34.3839 66.5955 32.9761C66.5679 32.8785 66.4988 32.8228 66.3884 32.8228H63.8211C63.7107 32.8228 63.6417 32.8785 63.614 32.9761C63.269 34.3839 62.8135 35.7499 62.3027 37.1717L60.3566 42.4963C60.3151 42.6218 60.3703 42.7054 60.5084 42.7054H62.4546C62.5512 42.7054 62.6202 42.6636 62.6616 42.566L63.0757 41.3952ZM66.4298 39.4298H63.7797L63.9729 38.8722C64.3733 37.7571 64.8012 36.4608 64.9806 35.5548C65.022 35.3875 65.1875 35.3875 65.229 35.5548C65.3946 36.4608 65.8364 37.7711 66.2366 38.8722L66.4298 39.4298ZM71.0952 32.8228C70.9848 32.8228 70.9158 32.8925 70.9158 33.004V42.5242C70.9158 42.6357 70.9848 42.7054 71.0952 42.7054H72.9724C73.0829 42.7054 73.1519 42.6357 73.1519 42.5242V39.5552H74.3389C76.8511 39.5552 78.3142 38.2868 78.3142 36.1123C78.3142 34.0494 77.0305 32.8228 74.822 32.8228H71.0952ZM73.1519 37.5899V34.8021H74.822C75.6088 34.8021 76.0643 35.29 76.0643 36.1123C76.0643 37.0462 75.4294 37.5899 74.3389 37.5899H73.1519ZM87.3415 33.0319C87.4105 32.9064 87.3552 32.8228 87.2173 32.8228H85.202C85.1054 32.8228 85.0363 32.8646 84.9949 32.9482L83.946 34.9833C83.4076 36.0148 82.607 36.642 81.8203 36.642H81.5442V33.004C81.5442 32.8925 81.4752 32.8228 81.3648 32.8228H79.4875C79.3771 32.8228 79.3081 32.8925 79.3081 33.004V42.5242C79.3081 42.6357 79.3771 42.7054 79.4875 42.7054H81.3648C81.4752 42.7054 81.5442 42.6357 81.5442 42.5242V38.6074H81.834C82.6208 38.6074 83.4491 39.2904 84.0425 40.4194L85.1606 42.58C85.202 42.6636 85.271 42.7054 85.3677 42.7054H87.4242C87.5761 42.7054 87.6313 42.6218 87.5623 42.4963L85.9611 39.4577C85.5332 38.6074 84.9536 38.0359 84.1529 37.6735C84.0564 37.6317 84.0839 37.5341 84.1529 37.5062C84.8983 37.2135 85.4505 36.7117 85.8784 35.8614L87.3415 33.0319ZM90.4195 41.3952H94.4775L94.8917 42.566C94.9331 42.6636 95.0021 42.7054 95.0987 42.7054H97.045C97.183 42.7054 97.238 42.6218 97.197 42.4963L95.2505 37.1717C94.7399 35.7499 94.2843 34.3839 93.9392 32.9761C93.9116 32.8785 93.8426 32.8228 93.7322 32.8228H91.1648C91.0544 32.8228 90.9854 32.8785 90.9578 32.9761C90.6128 34.3839 90.1572 35.7499 89.6465 37.1717L87.7003 42.4963C87.6588 42.6218 87.7141 42.7054 87.8521 42.7054H89.7984C89.8949 42.7054 89.9639 42.6636 90.0053 42.566L90.4195 41.3952ZM93.7736 39.4298H91.1234L91.3166 38.8722C91.717 37.7571 92.1449 36.4608 92.3243 35.5548C92.3657 35.3875 92.5313 35.3875 92.5728 35.5548C92.7383 36.4608 93.1801 37.7711 93.5804 38.8722L93.7736 39.4298ZM104.236 42.3012C104.36 42.2594 104.388 42.1897 104.347 42.0782L103.795 40.5588C103.767 40.4473 103.684 40.4055 103.574 40.4473L102.925 40.6425C102.428 40.8097 102.014 40.8515 101.503 40.8515C100.123 40.8515 99.281 39.7225 99.281 37.7571C99.281 35.8196 100.123 34.6906 101.503 34.6906C102.138 34.6906 102.538 34.7463 102.939 34.8718L103.588 35.0809C103.698 35.1227 103.767 35.0809 103.808 34.9694L104.305 33.3943C104.347 33.2828 104.305 33.2131 104.195 33.1713L103.56 32.9622C102.87 32.7392 102.29 32.6695 101.503 32.6695C98.729 32.6695 97.031 34.6348 97.031 37.7571C97.031 40.8934 98.729 42.8587 101.503 42.8587C102.262 42.8587 102.828 42.7751 103.574 42.5242L104.236 42.3012ZM113.346 42.7054C113.457 42.7054 113.526 42.6357 113.526 42.5242V33.004C113.526 32.8925 113.457 32.8228 113.346 32.8228H111.483C111.372 32.8228 111.303 32.8925 111.303 33.004V36.642H107.715V33.004C107.715 32.8925 107.646 32.8228 107.535 32.8228H105.658C105.547 32.8228 105.478 32.8925 105.478 33.004V42.5242C105.478 42.6357 105.547 42.7054 105.658 42.7054H107.535C107.646 42.7054 107.715 42.6357 107.715 42.5242V38.6074H111.303V42.5242C111.303 42.6357 111.372 42.7054 111.483 42.7054H113.346ZM115.085 42.5242C115.085 42.6357 115.154 42.7054 115.265 42.7054H118.992C121.2 42.7054 122.484 41.4788 122.484 39.4158C122.484 37.2414 121.021 35.973 118.508 35.973H117.321V33.004C117.321 32.8925 117.252 32.8228 117.142 32.8228H115.265C115.154 32.8228 115.085 32.8925 115.085 33.004V42.5242ZM125.617 42.7054C125.727 42.7054 125.796 42.6357 125.796 42.5242V33.004C125.796 32.8925 125.727 32.8228 125.617 32.8228H123.74C123.629 32.8228 123.56 32.8925 123.56 33.004V42.5242C123.56 42.6357 123.629 42.7054 123.74 42.7054H125.617ZM117.321 40.7261V37.9383H118.508C119.599 37.9383 120.234 38.4819 120.234 39.4158C120.234 40.2382 119.778 40.7261 118.992 40.7261H117.321ZM133.761 29.9932C133.761 29.8817 133.692 29.812 133.581 29.812H132.256C132.146 29.812 132.077 29.8817 132.077 29.9932V30.0768C132.077 30.3696 131.939 30.5786 131.58 30.5786C131.221 30.5786 131.083 30.3696 131.083 30.0768V29.9932C131.083 29.8817 131.014 29.812 130.904 29.812H129.592C129.482 29.812 129.413 29.8817 129.413 29.9932V30.1605C129.413 31.3732 130.089 31.9307 131.58 31.9307C133.071 31.9307 133.761 31.3732 133.761 30.1605V29.9932ZM135.472 42.7054C135.583 42.7054 135.652 42.6357 135.652 42.5242V33.004C135.652 32.8925 135.583 32.8228 135.472 32.8228H133.015C132.905 32.8228 132.85 32.8646 132.808 32.9622C132.601 33.45 132.339 33.9797 132.118 34.4397L130.158 38.4494C129.979 38.8118 129.827 39.1324 129.661 39.4948C129.551 39.7039 129.413 39.6203 129.427 39.4391C129.551 38.5609 129.578 37.9081 129.578 36.9045V33.004C129.578 32.8925 129.509 32.8228 129.399 32.8228H127.522C127.411 32.8228 127.342 32.8925 127.342 33.004V42.5219C127.342 42.6334 127.411 42.7031 127.522 42.7031H129.979C130.089 42.7031 130.144 42.6613 130.186 42.5637C130.407 42.0758 130.669 41.5462 130.89 41.0839L132.864 37.0486C133.029 36.6885 133.181 36.3679 133.36 36.0334C133.457 35.8103 133.609 35.894 133.581 36.0891C133.443 36.9533 133.429 37.5922 133.429 38.5958V42.5242C133.429 42.6357 133.499 42.7054 133.609 42.7054H135.472Z" fill="white"/>
<path d="M60.3072 53.9411V46.2051C60.3072 46.0936 60.2376 46.0239 60.1263 46.0239H53.4207C53.3094 46.0239 53.2399 46.0936 53.2399 46.2051V50.777C53.2399 51.5576 53.1703 52.1012 52.9338 52.5472L52.1686 53.9411H51.3757C51.2644 53.9411 51.1948 54.0108 51.1948 54.1223V58.3737C51.1948 58.4852 51.2644 58.5549 51.3757 58.5549H53.1146C53.2259 58.5549 53.2955 58.4852 53.2955 58.3737V55.9065H59.4446V58.3737C59.4446 58.4852 59.5142 58.5549 59.6255 58.5549H61.3644C61.4757 58.5549 61.5453 58.4852 61.5453 58.3737V54.1223C61.5453 54.0108 61.4757 53.9411 61.3644 53.9411H60.3072ZM55.4796 48.0032H58.0673V53.9411H54.631L54.8814 53.4672C55.271 52.7563 55.4796 51.9339 55.4796 50.777V48.0032ZM67.1936 45.8706C64.439 45.8706 62.7556 47.822 62.7556 50.9582C62.7556 54.0805 64.439 56.0598 67.1936 56.0598C69.9343 56.0598 71.6177 54.0805 71.6177 50.9582C71.6177 47.822 69.9343 45.8706 67.1936 45.8706ZM67.1936 47.8917C68.5431 47.8917 69.3499 49.0068 69.3499 50.9582C69.3499 52.8678 68.5431 54.0526 67.1936 54.0526C65.8442 54.0526 65.0234 52.8678 65.0234 50.9582C65.0234 49.0068 65.8442 47.8917 67.1936 47.8917ZM83.4706 55.9065C83.5819 55.9065 83.6515 55.8368 83.6515 55.7253V46.2051C83.6515 46.0936 83.5819 46.0239 83.4706 46.0239H80.6743C80.563 46.0239 80.4935 46.0796 80.4656 46.1772C80.3821 46.4839 80.2708 46.8463 80.1595 47.1251L79.4083 49.2298C79.1996 49.8431 78.9492 50.7073 78.7961 51.3485C78.7544 51.5158 78.6153 51.5158 78.5736 51.3485C78.4206 50.7213 78.1423 49.871 77.9197 49.2298L77.1963 47.1251C77.0989 46.8463 76.9876 46.4839 76.8902 46.1772C76.8624 46.0657 76.7928 46.0239 76.6955 46.0239H73.8852C73.7739 46.0239 73.7044 46.0936 73.7044 46.2051V55.7253C73.7044 55.8368 73.7739 55.9065 73.8852 55.9065H75.7773C75.8885 55.9065 75.9581 55.8368 75.9581 55.7253V52.7842C75.9581 51.7388 75.9025 50.2892 75.7634 49.2716C75.7355 49.0765 75.9025 49.0347 75.972 49.2159C76.1111 49.5922 76.2642 49.9546 76.4033 50.331L77.1685 52.4636C77.3076 52.826 77.4745 53.3557 77.6415 53.8575C77.6693 53.969 77.7389 54.0108 77.8362 54.0108H79.5196C79.617 54.0108 79.6865 53.969 79.7144 53.8575C79.8813 53.3557 80.0482 52.826 80.1735 52.4636L80.9386 50.3449C81.0916 49.9686 81.2447 49.5922 81.3838 49.2159C81.4395 49.0347 81.6064 49.0765 81.5786 49.2716C81.4395 50.2892 81.4116 51.7388 81.4116 52.7842V55.7253C81.4116 55.8368 81.4812 55.9065 81.5925 55.9065H83.4706Z" fill="white"/>
</svg>
