<svg width="139" height="89" viewBox="0 0 139 89" fill="none" xmlns="http://www.w3.org/2000/svg">
<g clip-path="url(#clip0)">
<path fill-rule="evenodd" clip-rule="evenodd" d="M43.0058 36.2963L33.4992 26.4V15.6782H28.7992V21.5074L23.1995 15.6782L3.19946 36.4979V43.3702L23.1995 22.6107L28.2134 27.8302L3.19946 53.9033V60.8851L31.5431 31.2963L36.4385 36.3923C24.7617 48.5689 13.1944 60.6218 3.19946 71.0622H23.1995H43.1995V43.0285L21.0766 66.1508H14.5614L43.0058 36.2963ZM38.4995 54.8125L27.7292 66.1508H38.4995V54.8125Z" fill="#FFC32D"/>
<path d="M59.2223 36.8275H61.9631C62.0743 36.8275 62.1439 36.7598 62.1439 36.6514V35.08C62.1439 34.9716 62.0743 34.9039 61.9631 34.9039H54.2279C54.1166 34.9039 54.0471 34.9716 54.0471 35.08V36.6514C54.0471 36.7598 54.1166 36.8275 54.2279 36.8275H56.9825V44.3323C56.9825 44.4407 57.0521 44.5084 57.1633 44.5084H59.0415C59.1528 44.5084 59.2223 44.4407 59.2223 44.3323V36.8275ZM63.9942 34.9039C63.8828 34.9039 63.8133 34.9716 63.8133 35.08V44.3323C63.8133 44.4407 63.8828 44.5084 63.9942 44.5084H68.0425C70.2267 44.5084 71.5066 43.506 71.5066 41.8127C71.5066 40.4309 70.5885 39.8348 70.0737 39.6452C69.8651 39.5639 69.8789 39.442 70.0876 39.3607C70.4632 39.1846 71.2005 38.6698 71.2005 37.4777C71.2005 35.8657 69.9206 34.9039 67.7782 34.9039H63.9942ZM66.067 38.6157V36.8275H67.7782C68.5156 36.8275 68.9329 37.1526 68.9329 37.708C68.9329 38.3176 68.5156 38.6157 67.6113 38.6157H66.067ZM66.067 42.5983V40.5257H67.7643C68.7799 40.5257 69.239 40.8779 69.239 41.6094C69.239 42.2191 68.7938 42.5983 68.0147 42.5983H66.067ZM77.4191 34.7549C74.6646 34.7549 72.9813 36.6514 72.9813 39.6994C72.9813 42.7338 74.6646 44.6574 77.4191 44.6574C80.1598 44.6574 81.8431 42.7338 81.8431 39.6994C81.8431 36.6514 80.1598 34.7549 77.4191 34.7549ZM77.4191 36.7191C78.7686 36.7191 79.5756 37.8029 79.5756 39.6994C79.5756 41.5553 78.7686 42.7068 77.4191 42.7068C76.0697 42.7068 75.2489 41.5553 75.2489 39.6994C75.2489 37.8029 76.0697 36.7191 77.4191 36.7191ZM90.1209 32.1539C90.1209 32.0456 90.0512 31.9778 89.9399 31.9778H88.6044C88.4931 31.9778 88.4235 32.0456 88.4235 32.1539V32.2352C88.4235 32.5197 88.2845 32.7229 87.9227 32.7229C87.561 32.7229 87.4219 32.5197 87.4219 32.2352V32.1539C87.4219 32.0456 87.3523 31.9778 87.241 31.9778H85.9194C85.8081 31.9778 85.7386 32.0456 85.7386 32.1539V32.3164C85.7386 33.4951 86.4203 34.0369 87.9227 34.0369C89.4252 34.0369 90.1209 33.4951 90.1209 32.3164V32.1539ZM91.8459 44.5084C91.9571 44.5084 92.0268 44.4407 92.0268 44.3323V35.08C92.0268 34.9716 91.9571 34.9039 91.8459 34.9039H89.3695C89.2582 34.9039 89.2027 34.9445 89.1609 35.0393C88.9522 35.5134 88.6879 36.0282 88.4653 36.4752L86.4898 40.3722C86.309 40.7244 86.156 41.0359 85.989 41.3882C85.8777 41.5913 85.7386 41.5101 85.7524 41.334C85.8777 40.4805 85.9055 39.8461 85.9055 38.8707V35.08C85.9055 34.9716 85.8359 34.9039 85.7247 34.9039H83.8327C83.7213 34.9039 83.6517 34.9716 83.6517 35.08V44.33C83.6517 44.4384 83.7213 44.5061 83.8327 44.5061H86.309C86.4203 44.5061 86.4759 44.4655 86.5176 44.3707C86.7402 43.8966 87.0045 43.3818 87.2271 42.9325L89.2165 39.0108C89.3835 38.6608 89.5365 38.3492 89.7173 38.0241C89.8148 37.8074 89.9678 37.8887 89.9399 38.0783C89.8008 38.9182 89.7869 39.5391 89.7869 40.5144V44.3323C89.7869 44.4407 89.8564 44.5084 89.9678 44.5084H91.8459Z" fill="white"/>
<path d="M62.9977 48.0319C63.0667 47.9064 63.0115 47.8228 62.8735 47.8228H60.8583C60.7616 47.8228 60.6926 47.8646 60.6512 47.9482L59.6022 49.9833C59.0638 51.0148 58.2633 51.642 57.4765 51.642H57.2005V48.004C57.2005 47.8925 57.1314 47.8228 57.021 47.8228H55.1438C55.0334 47.8228 54.9644 47.8925 54.9644 48.004V57.5242C54.9644 57.6357 55.0334 57.7054 55.1438 57.7054H57.021C57.1314 57.7054 57.2005 57.6357 57.2005 57.5242V53.6074H57.4903C58.2771 53.6074 59.1053 54.2904 59.6988 55.4194L60.8169 57.58C60.8583 57.6636 60.9273 57.7054 61.0239 57.7054H63.0805C63.2324 57.7054 63.2876 57.6218 63.2185 57.4963L61.6174 54.4577C61.1895 53.6074 60.6098 53.0359 59.8092 52.6735C59.7126 52.6317 59.7402 52.5341 59.8092 52.5062C60.5546 52.2135 61.1067 51.7117 61.5346 50.8614L62.9977 48.0319ZM66.0757 56.3952H70.1338L70.5479 57.566C70.5893 57.6636 70.6583 57.7054 70.755 57.7054H72.7011C72.8392 57.7054 72.8944 57.6218 72.853 57.4963L70.9068 52.1717C70.3961 50.7499 69.9406 49.3839 69.5955 47.9761C69.5679 47.8785 69.4988 47.8228 69.3884 47.8228H66.8211C66.7107 47.8228 66.6417 47.8785 66.614 47.9761C66.269 49.3839 65.8135 50.7499 65.3027 52.1717L63.3566 57.4963C63.3151 57.6218 63.3703 57.7054 63.5084 57.7054H65.4546C65.5512 57.7054 65.6202 57.6636 65.6616 57.566L66.0757 56.3952ZM69.4298 54.4298H66.7797L66.9729 53.8722C67.3733 52.7571 67.8012 51.4608 67.9806 50.5548C68.022 50.3875 68.1875 50.3875 68.229 50.5548C68.3946 51.4608 68.8364 52.7711 69.2366 53.8722L69.4298 54.4298ZM74.0952 47.8228C73.9848 47.8228 73.9158 47.8925 73.9158 48.004V57.5242C73.9158 57.6357 73.9848 57.7054 74.0952 57.7054H75.9724C76.0829 57.7054 76.1519 57.6357 76.1519 57.5242V54.5552H77.3389C79.8511 54.5552 81.3142 53.2868 81.3142 51.1123C81.3142 49.0494 80.0305 47.8228 77.822 47.8228H74.0952ZM76.1519 52.5899V49.8021H77.822C78.6088 49.8021 79.0643 50.29 79.0643 51.1123C79.0643 52.0462 78.4294 52.5899 77.3389 52.5899H76.1519ZM90.3415 48.0319C90.4105 47.9064 90.3552 47.8228 90.2173 47.8228H88.202C88.1054 47.8228 88.0363 47.8646 87.9949 47.9482L86.946 49.9833C86.4076 51.0148 85.607 51.642 84.8203 51.642H84.5442V48.004C84.5442 47.8925 84.4752 47.8228 84.3648 47.8228H82.4875C82.3771 47.8228 82.3081 47.8925 82.3081 48.004V57.5242C82.3081 57.6357 82.3771 57.7054 82.4875 57.7054H84.3648C84.4752 57.7054 84.5442 57.6357 84.5442 57.5242V53.6074H84.834C85.6208 53.6074 86.4491 54.2904 87.0425 55.4194L88.1606 57.58C88.202 57.6636 88.271 57.7054 88.3677 57.7054H90.4242C90.5761 57.7054 90.6313 57.6218 90.5623 57.4963L88.9611 54.4577C88.5332 53.6074 87.9536 53.0359 87.1529 52.6735C87.0564 52.6317 87.0839 52.5341 87.1529 52.5062C87.8983 52.2135 88.4505 51.7117 88.8784 50.8614L90.3415 48.0319ZM93.4195 56.3952H97.4775L97.8917 57.566C97.9331 57.6636 98.0021 57.7054 98.0987 57.7054H100.045C100.183 57.7054 100.238 57.6218 100.197 57.4963L98.2505 52.1717C97.7399 50.7499 97.2843 49.3839 96.9392 47.9761C96.9116 47.8785 96.8426 47.8228 96.7322 47.8228H94.1648C94.0544 47.8228 93.9854 47.8785 93.9578 47.9761C93.6128 49.3839 93.1572 50.7499 92.6465 52.1717L90.7003 57.4963C90.6588 57.6218 90.7141 57.7054 90.8521 57.7054H92.7984C92.8949 57.7054 92.9639 57.6636 93.0053 57.566L93.4195 56.3952ZM96.7736 54.4298H94.1234L94.3166 53.8722C94.7169 52.7571 95.1449 51.4608 95.3243 50.5548C95.3657 50.3875 95.5313 50.3875 95.5728 50.5548C95.7383 51.4608 96.1801 52.7711 96.5804 53.8722L96.7736 54.4298ZM107.236 57.3012C107.36 57.2594 107.388 57.1897 107.347 57.0782L106.795 55.5588C106.767 55.4473 106.684 55.4055 106.574 55.4473L105.925 55.6425C105.428 55.8097 105.014 55.8515 104.503 55.8515C103.123 55.8515 102.281 54.7225 102.281 52.7571C102.281 50.8196 103.123 49.6906 104.503 49.6906C105.138 49.6906 105.538 49.7463 105.939 49.8718L106.588 50.0809C106.698 50.1227 106.767 50.0809 106.808 49.9694L107.305 48.3943C107.347 48.2828 107.305 48.2131 107.195 48.1713L106.56 47.9622C105.87 47.7392 105.29 47.6695 104.503 47.6695C101.729 47.6695 100.031 49.6348 100.031 52.7571C100.031 55.8934 101.729 57.8587 104.503 57.8587C105.262 57.8587 105.828 57.7751 106.574 57.5242L107.236 57.3012ZM116.346 57.7054C116.457 57.7054 116.526 57.6357 116.526 57.5242V48.004C116.526 47.8925 116.457 47.8228 116.346 47.8228H114.483C114.372 47.8228 114.303 47.8925 114.303 48.004V51.642H110.715V48.004C110.715 47.8925 110.646 47.8228 110.535 47.8228H108.658C108.547 47.8228 108.478 47.8925 108.478 48.004V57.5242C108.478 57.6357 108.547 57.7054 108.658 57.7054H110.535C110.646 57.7054 110.715 57.6357 110.715 57.5242V53.6074H114.303V57.5242C114.303 57.6357 114.372 57.7054 114.483 57.7054H116.346ZM118.085 57.5242C118.085 57.6357 118.154 57.7054 118.265 57.7054H121.992C124.2 57.7054 125.484 56.4788 125.484 54.4158C125.484 52.2414 124.021 50.973 121.508 50.973H120.321V48.004C120.321 47.8925 120.252 47.8228 120.142 47.8228H118.265C118.154 47.8228 118.085 47.8925 118.085 48.004V57.5242ZM128.617 57.7054C128.727 57.7054 128.796 57.6357 128.796 57.5242V48.004C128.796 47.8925 128.727 47.8228 128.617 47.8228H126.74C126.629 47.8228 126.56 47.8925 126.56 48.004V57.5242C126.56 57.6357 126.629 57.7054 126.74 57.7054H128.617ZM120.321 55.7261V52.9383H121.508C122.599 52.9383 123.234 53.4819 123.234 54.4158C123.234 55.2382 122.778 55.7261 121.992 55.7261H120.321ZM136.761 44.9932C136.761 44.8817 136.692 44.812 136.581 44.812H135.256C135.146 44.812 135.077 44.8817 135.077 44.9932V45.0768C135.077 45.3696 134.939 45.5786 134.58 45.5786C134.221 45.5786 134.083 45.3696 134.083 45.0768V44.9932C134.083 44.8817 134.014 44.812 133.904 44.812H132.592C132.482 44.812 132.413 44.8817 132.413 44.9932V45.1605C132.413 46.3732 133.089 46.9307 134.58 46.9307C136.071 46.9307 136.761 46.3732 136.761 45.1605V44.9932ZM138.472 57.7054C138.583 57.7054 138.652 57.6357 138.652 57.5242V48.004C138.652 47.8925 138.583 47.8228 138.472 47.8228H136.015C135.905 47.8228 135.85 47.8646 135.808 47.9622C135.601 48.45 135.339 48.9797 135.118 49.4397L133.158 53.4494C132.979 53.8118 132.827 54.1324 132.661 54.4948C132.551 54.7039 132.413 54.6203 132.427 54.4391C132.551 53.5609 132.578 52.9081 132.578 51.9045V48.004C132.578 47.8925 132.509 47.8228 132.399 47.8228H130.522C130.411 47.8228 130.342 47.8925 130.342 48.004V57.5219C130.342 57.6334 130.411 57.7031 130.522 57.7031H132.979C133.089 57.7031 133.144 57.6613 133.186 57.5637C133.407 57.0758 133.669 56.5462 133.89 56.0839L135.864 52.0486C136.029 51.6885 136.181 51.3679 136.36 51.0334C136.457 50.8103 136.609 50.894 136.581 51.0891C136.443 51.9533 136.429 52.5922 136.429 53.5958V57.5242C136.429 57.6357 136.499 57.7054 136.609 57.7054H138.472Z" fill="white"/>
<path d="M63.3072 68.9411V61.2051C63.3072 61.0936 63.2376 61.0239 63.1263 61.0239H56.4207C56.3094 61.0239 56.2399 61.0936 56.2399 61.2051V65.777C56.2399 66.5576 56.1703 67.1012 55.9338 67.5472L55.1686 68.9411H54.3757C54.2644 68.9411 54.1948 69.0108 54.1948 69.1223V73.3737C54.1948 73.4852 54.2644 73.5549 54.3757 73.5549H56.1146C56.2259 73.5549 56.2955 73.4852 56.2955 73.3737V70.9065H62.4446V73.3737C62.4446 73.4852 62.5142 73.5549 62.6255 73.5549H64.3644C64.4757 73.5549 64.5453 73.4852 64.5453 73.3737V69.1223C64.5453 69.0108 64.4757 68.9411 64.3644 68.9411H63.3072ZM58.4796 63.0032H61.0673V68.9411H57.631L57.8814 68.4672C58.271 67.7563 58.4796 66.9339 58.4796 65.777V63.0032ZM70.1936 60.8706C67.439 60.8706 65.7556 62.822 65.7556 65.9582C65.7556 69.0805 67.439 71.0598 70.1936 71.0598C72.9343 71.0598 74.6177 69.0805 74.6177 65.9582C74.6177 62.822 72.9343 60.8706 70.1936 60.8706ZM70.1936 62.8917C71.5431 62.8917 72.3499 64.0068 72.3499 65.9582C72.3499 67.8678 71.5431 69.0526 70.1936 69.0526C68.8442 69.0526 68.0234 67.8678 68.0234 65.9582C68.0234 64.0068 68.8442 62.8917 70.1936 62.8917ZM86.4706 70.9065C86.5819 70.9065 86.6515 70.8368 86.6515 70.7253V61.2051C86.6515 61.0936 86.5819 61.0239 86.4706 61.0239H83.6743C83.563 61.0239 83.4935 61.0796 83.4656 61.1772C83.3821 61.4839 83.2708 61.8463 83.1595 62.1251L82.4083 64.2298C82.1996 64.8431 81.9492 65.7073 81.7961 66.3485C81.7544 66.5158 81.6153 66.5158 81.5736 66.3485C81.4206 65.7213 81.1423 64.871 80.9197 64.2298L80.1963 62.1251C80.0989 61.8463 79.9876 61.4839 79.8902 61.1772C79.8624 61.0657 79.7928 61.0239 79.6955 61.0239H76.8852C76.7739 61.0239 76.7044 61.0936 76.7044 61.2051V70.7253C76.7044 70.8368 76.7739 70.9065 76.8852 70.9065H78.7773C78.8885 70.9065 78.9581 70.8368 78.9581 70.7253V67.7842C78.9581 66.7388 78.9025 65.2892 78.7634 64.2716C78.7355 64.0765 78.9025 64.0347 78.972 64.2159C79.1111 64.5922 79.2642 64.9546 79.4033 65.331L80.1685 67.4636C80.3076 67.826 80.4745 68.3557 80.6415 68.8575C80.6693 68.969 80.7389 69.0108 80.8362 69.0108H82.5196C82.617 69.0108 82.6865 68.969 82.7144 68.8575C82.8813 68.3557 83.0482 67.826 83.1735 67.4636L83.9386 65.3449C84.0916 64.9686 84.2447 64.5922 84.3838 64.2159C84.4395 64.0347 84.6064 64.0765 84.5786 64.2716C84.4395 65.2892 84.4116 66.7388 84.4116 67.7842V70.7253C84.4116 70.8368 84.4812 70.9065 84.5925 70.9065H86.4706Z" fill="white"/>
</g>
<defs>
<clipPath id="clip0">
<rect width="139" height="89" fill="white"/>
</clipPath>
</defs>
</svg>
