<svg width="108" height="47" viewBox="0 0 108 47" fill="none" xmlns="http://www.w3.org/2000/svg">
<path fill-rule="evenodd" clip-rule="evenodd" d="M32.0334 16.7237L24.5102 8.8921V0.407227H20.7907V5.02026L16.3593 0.407227L0.531982 16.8832V22.3218L16.3593 5.89338L20.3272 10.0239L0.531982 30.6573V36.1825L22.9622 12.7669L26.8362 16.7997C17.5956 26.4358 8.44162 35.9741 0.531982 44.2363H16.3593H32.1867V22.0513L14.6793 40.3496H9.52342L32.0334 16.7237ZM28.4672 31.3768L19.944 40.3496H28.4672V31.3768Z" fill="#FFC32D"/>
<path d="M44.8665 17.144H47.0355C47.1235 17.144 47.1785 17.0905 47.1785 17.0047V15.7611C47.1785 15.6753 47.1235 15.6218 47.0355 15.6218H40.9141C40.826 15.6218 40.771 15.6753 40.771 15.7611V17.0047C40.771 17.0905 40.826 17.144 40.9141 17.144H43.094V23.0831C43.094 23.1689 43.1491 23.2225 43.2371 23.2225H44.7234C44.8115 23.2225 44.8665 23.1689 44.8665 23.0831V17.144ZM48.6428 15.6218C48.5546 15.6218 48.4996 15.6753 48.4996 15.7611V23.0831C48.4996 23.1689 48.5546 23.2225 48.6428 23.2225H51.8465C53.575 23.2225 54.5879 22.4292 54.5879 21.0892C54.5879 19.9957 53.8613 19.5239 53.4539 19.3739C53.2888 19.3095 53.2998 19.2131 53.4649 19.1487C53.7622 19.0094 54.3456 18.602 54.3456 17.6586C54.3456 16.3829 53.3328 15.6218 51.6373 15.6218H48.6428ZM50.2831 18.5592V17.144H51.6373C52.2209 17.144 52.5511 17.4013 52.5511 17.8408C52.5511 18.3233 52.2209 18.5592 51.5053 18.5592H50.2831ZM50.2831 21.7109V20.0707H51.6263C52.43 20.0707 52.7934 20.3494 52.7934 20.9283C52.7934 21.4108 52.441 21.7109 51.8245 21.7109H50.2831ZM59.2668 15.5039C57.087 15.5039 55.7549 17.0047 55.7549 19.4168C55.7549 21.8181 57.087 23.3404 59.2668 23.3404C61.4357 23.3404 62.7678 21.8181 62.7678 19.4168C62.7678 17.0047 61.4357 15.5039 59.2668 15.5039ZM59.2668 17.0583C60.3348 17.0583 60.9734 17.9159 60.9734 19.4168C60.9734 20.8855 60.3348 21.7967 59.2668 21.7967C58.1989 21.7967 57.5494 20.8855 57.5494 19.4168C57.5494 17.9159 58.1989 17.0583 59.2668 17.0583ZM69.3186 13.4455C69.3186 13.3598 69.2634 13.3062 69.1754 13.3062H68.1185C68.0304 13.3062 67.9753 13.3598 67.9753 13.4455V13.5098C67.9753 13.735 67.8653 13.8958 67.579 13.8958C67.2928 13.8958 67.1827 13.735 67.1827 13.5098V13.4455C67.1827 13.3598 67.1276 13.3062 67.0395 13.3062H65.9937C65.9056 13.3062 65.8506 13.3598 65.8506 13.4455V13.5741C65.8506 14.5069 66.3901 14.9357 67.579 14.9357C68.7681 14.9357 69.3186 14.5069 69.3186 13.5741V13.4455ZM70.6837 23.2225C70.7717 23.2225 70.8269 23.1689 70.8269 23.0831V15.7611C70.8269 15.6753 70.7717 15.6218 70.6837 15.6218H68.724C68.6359 15.6218 68.592 15.6539 68.5589 15.7289C68.3937 16.1041 68.1846 16.5115 68.0084 16.8652L66.4451 19.9492C66.302 20.2279 66.1809 20.4744 66.0488 20.7532C65.9607 20.914 65.8506 20.8497 65.8615 20.7103C65.9607 20.0349 65.9827 19.5329 65.9827 18.761V15.7611C65.9827 15.6753 65.9276 15.6218 65.8396 15.6218H64.3423C64.2542 15.6218 64.1991 15.6753 64.1991 15.7611V23.0813C64.1991 23.1671 64.2542 23.2206 64.3423 23.2206H66.302C66.3901 23.2206 66.4341 23.1885 66.4671 23.1135C66.6432 22.7383 66.8524 22.3309 67.0285 21.9753L68.6029 18.8718C68.7351 18.5949 68.8561 18.3483 68.9992 18.091C69.0764 17.9195 69.1974 17.9838 69.1754 18.1339C69.0653 18.7986 69.0543 19.2899 69.0543 20.0617V23.0831C69.0543 23.1689 69.1093 23.2225 69.1974 23.2225H70.6837Z" fill="white"/>
<path d="M47.8544 26.0108C47.909 25.9115 47.8653 25.8453 47.7561 25.8453H46.1613C46.0848 25.8453 46.0302 25.8784 45.9974 25.9445L45.1673 27.555C44.7412 28.3713 44.1077 28.8677 43.4851 28.8677H43.2666V25.9887C43.2666 25.9005 43.212 25.8453 43.1246 25.8453H41.639C41.5517 25.8453 41.4971 25.9005 41.4971 25.9887V33.5227C41.4971 33.6109 41.5517 33.6661 41.639 33.6661H43.1246C43.212 33.6661 43.2666 33.6109 43.2666 33.5227V30.423H43.496C44.1186 30.423 44.774 30.9635 45.2437 31.857L46.1285 33.5668C46.1613 33.633 46.2159 33.6661 46.2924 33.6661H47.9199C48.0401 33.6661 48.0838 33.5999 48.0291 33.5006L46.762 31.0959C46.4234 30.423 45.9647 29.9708 45.3311 29.684C45.2546 29.6509 45.2765 29.5737 45.3311 29.5516C45.921 29.3199 46.3579 28.9228 46.6965 28.2499L47.8544 26.0108ZM50.2902 32.6292H53.5016L53.8293 33.5557C53.8621 33.633 53.9167 33.6661 53.9932 33.6661H55.5333C55.6426 33.6661 55.6863 33.5999 55.6535 33.5006L54.1134 29.2869C53.7092 28.1617 53.3487 27.0807 53.0756 25.9666C53.0538 25.8894 52.9991 25.8453 52.9117 25.8453H50.8801C50.7927 25.8453 50.7381 25.8894 50.7162 25.9666C50.4432 27.0807 50.0827 28.1617 49.6785 29.2869L48.1384 33.5006C48.1055 33.5999 48.1492 33.6661 48.2585 33.6661H49.7987C49.8751 33.6661 49.9297 33.633 49.9625 33.5557L50.2902 32.6292ZM52.9445 31.0739H50.8473L51.0002 30.6326C51.3171 29.7501 51.6557 28.7243 51.7977 28.0073C51.8304 27.8749 51.9614 27.8749 51.9942 28.0073C52.1253 28.7243 52.4749 29.7612 52.7916 30.6326L52.9445 31.0739ZM56.6366 25.8453C56.5492 25.8453 56.4946 25.9005 56.4946 25.9887V33.5227C56.4946 33.6109 56.5492 33.6661 56.6366 33.6661H58.1221C58.2096 33.6661 58.2642 33.6109 58.2642 33.5227V31.1731H59.2035C61.1916 31.1731 62.3494 30.1693 62.3494 28.4485C62.3494 26.816 61.3336 25.8453 59.5858 25.8453H56.6366ZM58.2642 29.6178V27.4116H59.5858C60.2085 27.4116 60.5689 27.7978 60.5689 28.4485C60.5689 29.1876 60.0665 29.6178 59.2035 29.6178H58.2642ZM69.4933 26.0108C69.5479 25.9115 69.5042 25.8453 69.3951 25.8453H67.8002C67.7238 25.8453 67.6691 25.8784 67.6363 25.9445L66.8063 27.555C66.3802 28.3713 65.7466 28.8677 65.124 28.8677H64.9055V25.9887C64.9055 25.9005 64.8509 25.8453 64.7636 25.8453H63.2779C63.1906 25.8453 63.136 25.9005 63.136 25.9887V33.5227C63.136 33.6109 63.1906 33.6661 63.2779 33.6661H64.7636C64.8509 33.6661 64.9055 33.6109 64.9055 33.5227V30.423H65.1349C65.7575 30.423 66.413 30.9635 66.8826 31.857L67.7674 33.5668C67.8002 33.633 67.8548 33.6661 67.9313 33.6661H69.5588C69.679 33.6661 69.7227 33.5999 69.6681 33.5006L68.4009 31.0959C68.0623 30.423 67.6036 29.9708 66.97 29.684C66.8936 29.6509 66.9154 29.5737 66.97 29.5516C67.5599 29.3199 67.9969 28.9228 68.3355 28.2499L69.4933 26.0108ZM71.9292 32.6292H75.1405L75.4683 33.5557C75.5011 33.633 75.5557 33.6661 75.6321 33.6661H77.1724C77.2816 33.6661 77.3251 33.5999 77.2927 33.5006L75.7523 29.2869C75.3482 28.1617 74.9876 27.0807 74.7145 25.9666C74.6927 25.8894 74.6381 25.8453 74.5507 25.8453H72.519C72.4316 25.8453 72.377 25.8894 72.3552 25.9666C72.0821 27.0807 71.7216 28.1617 71.3174 29.2869L69.7773 33.5006C69.7444 33.5999 69.7882 33.6661 69.8974 33.6661H71.4376C71.514 33.6661 71.5686 33.633 71.6014 33.5557L71.9292 32.6292ZM74.5835 31.0739H72.4862L72.6391 30.6326C72.956 29.7501 73.2946 28.7243 73.4366 28.0073C73.4693 27.8749 73.6004 27.8749 73.6332 28.0073C73.7642 28.7243 74.1138 29.7612 74.4306 30.6326L74.5835 31.0739ZM82.8631 33.3462C82.9612 33.3131 82.9834 33.258 82.9509 33.1697L82.5141 31.9673C82.4919 31.8791 82.4263 31.846 82.3392 31.8791L81.8256 32.0336C81.4323 32.1659 81.1047 32.1989 80.7003 32.1989C79.6082 32.1989 78.9419 31.3055 78.9419 29.7501C78.9419 28.2169 79.6082 27.3234 80.7003 27.3234C81.2028 27.3234 81.5193 27.3675 81.8367 27.4668L82.3503 27.6323C82.4373 27.6654 82.4919 27.6323 82.5244 27.544L82.9177 26.2976C82.9509 26.2093 82.9177 26.1542 82.8306 26.1211L82.3281 25.9556C81.7821 25.7791 81.3231 25.724 80.7003 25.724C78.505 25.724 77.1613 27.2793 77.1613 29.7501C77.1613 32.2321 78.505 33.7874 80.7003 33.7874C81.3009 33.7874 81.7488 33.7212 82.3392 33.5227L82.8631 33.3462ZM90.0724 33.6661C90.1603 33.6661 90.2149 33.6109 90.2149 33.5227V25.9887C90.2149 25.9005 90.1603 25.8453 90.0724 25.8453H88.5981C88.5103 25.8453 88.4557 25.9005 88.4557 25.9887V28.8677H85.6163V25.9887C85.6163 25.9005 85.5617 25.8453 85.4738 25.8453H83.9884C83.9006 25.8453 83.846 25.9005 83.846 25.9887V33.5227C83.846 33.6109 83.9006 33.6661 83.9884 33.6661H85.4738C85.5617 33.6661 85.6163 33.6109 85.6163 33.5227V30.423H88.4557V33.5227C88.4557 33.6109 88.5103 33.6661 88.5981 33.6661H90.0724ZM91.4486 33.5227C91.4486 33.6109 91.5032 33.6661 91.5911 33.6661H94.5405C96.2878 33.6661 97.304 32.6954 97.304 31.0628C97.304 29.342 96.1462 28.3383 94.1575 28.3383H93.2181V25.9887C93.2181 25.9005 93.1635 25.8453 93.0765 25.8453H91.5911C91.5032 25.8453 91.4486 25.9005 91.4486 25.9887V33.5227ZM99.7833 33.6661C99.8704 33.6661 99.925 33.6109 99.925 33.5227V25.9887C99.925 25.9005 99.8704 25.8453 99.7833 25.8453H98.2979C98.2101 25.8453 98.1555 25.9005 98.1555 25.9887V33.5227C98.1555 33.6109 98.2101 33.6661 98.2979 33.6661H99.7833ZM93.2181 32.0997V29.8935H94.1575C95.0209 29.8935 95.5234 30.3237 95.5234 31.0628C95.5234 31.7136 95.1625 32.0997 94.5405 32.0997H93.2181ZM106.228 23.606C106.228 23.5178 106.174 23.4626 106.086 23.4626H105.037C104.95 23.4626 104.896 23.5178 104.896 23.606V23.6722C104.896 23.9039 104.786 24.0693 104.502 24.0693C104.218 24.0693 104.109 23.9039 104.109 23.6722V23.606C104.109 23.5178 104.054 23.4626 103.967 23.4626H102.929C102.842 23.4626 102.787 23.5178 102.787 23.606V23.7384C102.787 24.6981 103.322 25.1393 104.502 25.1393C105.682 25.1393 106.228 24.6981 106.228 23.7384V23.606ZM107.582 33.6661C107.67 33.6661 107.725 33.6109 107.725 33.5227V25.9887C107.725 25.9005 107.67 25.8453 107.582 25.8453H105.638C105.551 25.8453 105.507 25.8784 105.474 25.9556C105.31 26.3416 105.103 26.7608 104.928 27.1249L103.377 30.298C103.235 30.5848 103.115 30.8385 102.984 31.1253C102.897 31.2908 102.787 31.2246 102.798 31.0812C102.897 30.3862 102.918 29.8696 102.918 29.0754V25.9887C102.918 25.9005 102.863 25.8453 102.776 25.8453H101.291C101.203 25.8453 101.148 25.9005 101.148 25.9887V33.5208C101.148 33.6091 101.203 33.6642 101.291 33.6642H103.235C103.322 33.6642 103.366 33.6312 103.399 33.5539C103.574 33.1678 103.781 32.7487 103.956 32.3829L105.518 29.1895C105.649 28.9045 105.769 28.6508 105.911 28.3861C105.988 28.2095 106.108 28.2757 106.086 28.4301C105.977 29.114 105.965 29.6196 105.965 30.4139V33.5227C105.965 33.6109 106.021 33.6661 106.108 33.6661H107.582Z" fill="white"/>
<path d="M48.0994 42.5579V36.4359C48.0994 36.3476 48.0444 36.2925 47.9563 36.2925H42.6497C42.5616 36.2925 42.5066 36.3476 42.5066 36.4359V40.0539C42.5066 40.6716 42.4515 41.1018 42.2644 41.4548L41.6588 42.5579H41.0313C40.9433 42.5579 40.8882 42.613 40.8882 42.7013V46.0657C40.8882 46.1539 40.9433 46.2091 41.0313 46.2091H42.4074C42.4955 46.2091 42.5506 46.1539 42.5506 46.0657V44.1132H47.4168V46.0657C47.4168 46.1539 47.4719 46.2091 47.56 46.2091H48.9361C49.0241 46.2091 49.0792 46.1539 49.0792 46.0657V42.7013C49.0792 42.613 49.0241 42.5579 48.9361 42.5579H48.0994ZM44.279 37.8588H46.3269V42.5579H43.6075L43.8056 42.1828C44.114 41.6203 44.279 40.9694 44.279 40.0539V37.8588ZM53.5491 36.1711C51.3692 36.1711 50.037 37.7154 50.037 40.1973C50.037 42.6682 51.3692 44.2345 53.5491 44.2345C55.718 44.2345 57.0502 42.6682 57.0502 40.1973C57.0502 37.7154 55.718 36.1711 53.5491 36.1711ZM53.5491 37.7706C54.6171 37.7706 55.2555 38.653 55.2555 40.1973C55.2555 41.7085 54.6171 42.6461 53.5491 42.6461C52.4812 42.6461 51.8317 41.7085 51.8317 40.1973C51.8317 38.653 52.4812 37.7706 53.5491 37.7706ZM66.4302 44.1132C66.5183 44.1132 66.5733 44.0581 66.5733 43.9698V36.4359C66.5733 36.3476 66.5183 36.2925 66.4302 36.2925H64.2173C64.1292 36.2925 64.0742 36.3365 64.0521 36.4138C63.986 36.6565 63.898 36.9433 63.8099 37.1639L63.2154 38.8295C63.0503 39.3148 62.8521 39.9987 62.7309 40.5062C62.6979 40.6386 62.5879 40.6386 62.5549 40.5062C62.4338 40.0098 62.2135 39.3369 62.0374 38.8295L61.4649 37.1639C61.3878 36.9433 61.2997 36.6565 61.2227 36.4138C61.2007 36.3255 61.1456 36.2925 61.0686 36.2925H58.8446C58.7565 36.2925 58.7015 36.3476 58.7015 36.4359V43.9698C58.7015 44.0581 58.7565 44.1132 58.8446 44.1132H60.342C60.43 44.1132 60.485 44.0581 60.485 43.9698V41.6423C60.485 40.815 60.441 39.6679 60.331 38.8626C60.3089 38.7082 60.441 38.6751 60.496 38.8185C60.6061 39.1163 60.7273 39.4031 60.8374 39.701L61.4429 41.3886C61.553 41.6754 61.6851 42.0946 61.8172 42.4917C61.8392 42.5799 61.8943 42.613 61.9713 42.613H63.3035C63.3806 42.613 63.4356 42.5799 63.4577 42.4917C63.5897 42.0946 63.7218 41.6754 63.821 41.3886L64.4264 39.712C64.5475 39.4142 64.6687 39.1163 64.7788 38.8185C64.8228 38.6751 64.9549 38.7082 64.9329 38.8626C64.8228 39.6679 64.8008 40.815 64.8008 41.6423V43.9698C64.8008 44.0581 64.8558 44.1132 64.9439 44.1132H66.4302Z" fill="white"/>
</svg>
