<svg width="60" height="60" viewBox="0 0 60 60" fill="none" xmlns="http://www.w3.org/2000/svg">
<path d="M46.6674 27.6588L19.9666 0.958529C19.3491 0.340485 18.5247 0 17.6457 0C16.7667 0 15.9423 0.340485 15.3247 0.958529L13.3584 2.92437C12.0789 4.20533 12.0789 6.28727 13.3584 7.56628L35.7797 29.9876L13.3335 52.4337C12.716 53.0518 12.375 53.8757 12.375 54.7542C12.375 55.6337 12.716 56.4576 13.3335 57.0761L15.2999 59.0415C15.9179 59.6595 16.7418 60 17.6208 60C18.4998 60 19.3242 59.6595 19.9418 59.0415L46.6674 32.3168C47.2864 31.6968 47.6264 30.869 47.6245 29.989C47.6264 29.1056 47.2864 28.2783 46.6674 27.6588Z" fill="#E3A608"/>
</svg>
