<svg width="60" height="60" viewBox="0 0 60 60" fill="none" xmlns="http://www.w3.org/2000/svg">
<path d="M13.3326 27.6588L40.0334 0.958529C40.6509 0.340485 41.4753 0 42.3543 0C43.2333 0 44.0577 0.340485 44.6753 0.958529L46.6416 2.92437C47.9211 4.20533 47.9211 6.28727 46.6416 7.56628L24.2203 29.9876L46.6665 52.4337C47.284 53.0518 47.625 53.8757 47.625 54.7542C47.625 55.6337 47.284 56.4576 46.6665 57.0761L44.7001 59.0415C44.0821 59.6595 43.2582 60 42.3792 60C41.5002 60 40.6758 59.6595 40.0582 59.0415L13.3326 32.3168C12.7136 31.6968 12.3736 30.869 12.3755 29.989C12.3736 29.1056 12.7136 28.2783 13.3326 27.6588Z" fill="#E3A608"/>
</svg>
