<svg width="56" height="34" viewBox="0 0 56 34" fill="none" xmlns="http://www.w3.org/2000/svg">
<path d="M18.472 12.631L12.0336 6.67348C12.0336 6.67348 11.1266 5.54845 8.32899 5.54845C5.54414 5.54845 0.0127753 5.54845 0.0127753 5.54845V0H7.52419C7.52419 0 11.446 0.268474 13.1578 0.856558C14.8695 1.44464 16.0576 2.03273 17.3478 3.43902C18.638 4.84531 19.7111 6.60956 19.7111 8.11813C19.7111 9.62669 18.9063 11.7745 18.472 12.631ZM19.7111 26.809L12.1997 20.0332C12.1997 20.0332 10.8072 18.8571 7.52419 18.8571H3.18085V13.8072H17.8332C17.8332 13.8072 16.3897 15.482 14.448 16.1723C14.448 16.1723 20.5159 16.8755 20.5159 22.7819C20.5159 22.7819 20.567 25.0959 19.7111 26.809ZM15.0867 31.9739C12.9917 32.8816 10.309 33.4186 8.16292 33.4186C6.0168 33.4186 0 33.4186 0 33.4186V28.0235H19.264C19.2767 28.0235 17.1817 31.0534 15.0867 31.9739Z" fill="#FFB905"/>
<path d="M48.3641 26.8985V6.34109H39.2431L32.5876 0H55.5051V33.4186L48.3641 26.8985ZM38.4383 19.5091C38.004 23.3188 37.1992 27.3587 35.8579 29.3915C34.5166 31.437 33.5457 32.2935 32 33.4186L25.2295 27.2948C25.2295 27.2948 28.1804 27.1925 28.9341 26.3232C29.6878 25.4666 31.0802 23.8558 31.6679 19.4963C32.2555 15.1496 32.2555 7.93914 32.2555 7.93914H38.911C38.9238 7.95193 38.8599 15.6865 38.4383 19.5091Z" fill="#FFB905"/>
</svg>
