<svg width="24" height="26" viewBox="0 0 24 26" fill="none" xmlns="http://www.w3.org/2000/svg">
<path d="M17.8105 0.734375H6.15039C2.89844 0.734375 0.251953 3.38086 0.251953 6.63281V19.2207C0.251953 19.709 0.642578 20.0996 1.13086 20.0996C1.61914 20.0996 2.00976 19.709 2.00976 19.2207V6.63281C2.00976 4.34766 3.86523 2.49219 6.15039 2.49219H17.8008C20.1055 2.49219 21.9805 4.34766 21.9805 6.63281V19.377C21.9805 21.6621 20.1055 23.5176 17.8008 23.5176H6.375C5.88672 23.5176 5.49609 23.9082 5.49609 24.3965C5.49609 24.8848 5.88672 25.2754 6.375 25.2754H12.0879H17.8008C21.0723 25.2754 23.7383 22.6289 23.7383 19.377V6.63281C23.748 3.38086 21.082 0.734375 17.8105 0.734375Z" fill="#FFC32D"/>
<path d="M12 6.49609C8.41602 6.49609 5.49609 9.41602 5.49609 13C5.49609 16.584 8.41602 19.5039 12 19.5039C13.7188 19.5039 15.3496 18.8203 16.5801 17.5898C17.8105 16.3594 18.4941 14.7285 18.4941 13.0098C18.5039 9.41602 15.584 6.49609 12 6.49609ZM12 17.7461C9.38281 17.7461 7.25391 15.6172 7.25391 13C7.25391 10.3828 9.38281 8.25391 12 8.25391C14.6172 8.25391 16.7461 10.3828 16.7461 13C16.7461 15.5684 14.5684 17.7461 12 17.7461ZM19.4414 5.77344C19.4414 5.20703 18.9824 4.73828 18.4063 4.73828C17.8301 4.73828 17.3711 5.19727 17.3711 5.77344C17.3711 6.34961 17.8301 6.8086 18.4063 6.8086C18.9824 6.8086 19.4414 6.33984 19.4414 5.77344Z" fill="#FFC32D"/>
</svg>
