<svg width="118" height="50" viewBox="0 0 118 50" fill="none" xmlns="http://www.w3.org/2000/svg">
<path d="M3.14253 46.9956C3.50022 47.0979 3.79403 47.2769 3.99842 47.507C4.21559 47.7371 4.31779 48.0312 4.31779 48.3891C4.31779 48.8494 4.13894 49.2329 3.76848 49.5397C3.39802 49.8466 2.92536 50 2.35051 50C1.44352 50 0.664275 49.6931 0 49.0923L0.383236 48.6448C0.958089 49.1818 1.60959 49.4502 2.36329 49.4502C2.72097 49.4502 3.02756 49.348 3.29583 49.1434C3.55132 48.9389 3.67906 48.6832 3.67906 48.3636C3.67906 48.0184 3.53854 47.7499 3.2575 47.5837C2.97646 47.4175 2.606 47.328 2.15889 47.328H1.53294V46.7911H2.15889C2.56768 46.7911 2.89982 46.7016 3.15531 46.5098C3.4108 46.318 3.53854 46.0624 3.53854 45.73C3.53854 45.4359 3.42357 45.2058 3.18086 45.014C2.93814 44.8223 2.63155 44.7328 2.27386 44.7328C1.63514 44.7328 1.08583 44.9501 0.613177 45.372L0.242716 44.9245C0.53653 44.6688 0.843118 44.4899 1.16248 44.362C1.48184 44.2342 1.85231 44.183 2.28664 44.183C2.84872 44.183 3.29583 44.3237 3.65351 44.6049C4.0112 44.8862 4.19004 45.2441 4.19004 45.6788C4.16449 46.3053 3.81958 46.7527 3.14253 46.9956ZM10.9989 49.8849L10.3346 48.3891H7.2687L6.60443 49.8849H5.95293L8.5206 44.2086H9.12101L11.6887 49.8849H10.9989ZM8.81442 44.9501L7.52419 47.8266H10.0919L8.81442 44.9501ZM17.4883 49.8849V44.8223H14.3202V49.8849H13.6815V44.247H18.127V49.8849H17.4883ZM24.1311 49.8849V47.4686C23.8883 47.6093 23.5945 47.7371 23.2624 47.8522C22.9303 47.9672 22.6364 48.0184 22.381 48.0184C21.8189 48.0184 21.3845 47.8777 21.0524 47.5965C20.7203 47.3152 20.567 46.9061 20.567 46.3692V44.247H21.2057V46.2669C21.2057 46.6249 21.3079 46.9061 21.5251 47.1235C21.7422 47.328 22.0488 47.4431 22.4321 47.4431C22.9558 47.4431 23.5179 47.2641 24.1438 46.8933V44.247H24.7826V49.8849H24.1311ZM31.9363 49.8849L31.272 48.3891H28.2061L27.5419 49.8849H26.8904L29.458 44.2086H30.0584L32.6261 49.8849H31.9363ZM29.7391 44.9501L28.4489 47.8266H31.0165L29.7391 44.9501ZM37.0461 44.7456C36.4202 44.7456 35.9092 44.9629 35.4876 45.4103C35.0661 45.8578 34.8617 46.4075 34.8617 47.0723C34.8617 47.7243 35.0661 48.2741 35.4876 48.7343C35.9092 49.1818 36.4202 49.4119 37.0461 49.4119C37.4166 49.4119 37.7359 49.348 38.017 49.2073C38.298 49.0795 38.579 48.8749 38.8729 48.5937L39.2944 49.0411C38.9751 49.3607 38.6429 49.5909 38.298 49.7571C37.9531 49.9233 37.5315 50 37.0461 50C36.2413 50 35.5643 49.7187 35.0277 49.1562C34.4912 48.5937 34.2229 47.9033 34.2229 47.0851C34.2229 46.2797 34.4912 45.5893 35.0405 45.014C35.5898 44.4387 36.2669 44.1575 37.0717 44.1575C37.5443 44.1575 37.9403 44.2342 38.2725 44.3876C38.6046 44.541 38.924 44.7711 39.2433 45.0652L38.8218 45.5126C38.2725 45.0012 37.6848 44.7456 37.0461 44.7456ZM43.51 44.835V49.8977H42.8713V44.835H40.9807V44.2597H45.4134V44.835H43.51ZM51.1747 49.4119C50.7915 49.7315 50.2933 49.8977 49.6546 49.8977H47.4957V44.2597H48.1344V46.4459H49.5524C50.2039 46.4459 50.7276 46.5865 51.1364 46.855C51.5452 47.1235 51.7496 47.5453 51.7496 48.1079C51.7368 48.6448 51.5452 49.0795 51.1747 49.4119ZM50.7021 47.2897C50.4338 47.0979 50.0633 47.0084 49.5907 47.0084H48.1216V49.3096H49.629C50.0889 49.3096 50.4466 49.2073 50.7148 49.0028C50.9703 48.7982 51.1108 48.5042 51.1108 48.1079C51.1108 47.7499 50.9703 47.4814 50.7021 47.2897ZM53.653 47.801V47.149H55.8885V47.801H53.653ZM62.0842 49.8849V44.8223H59.6825V45.4359C59.6825 46.203 59.657 46.855 59.5931 47.4175C59.5293 47.98 59.4526 48.4147 59.3504 48.7343C59.2482 49.0539 59.1205 49.3096 58.9672 49.5014C58.8139 49.6931 58.6606 49.8082 58.5201 49.8721C58.3795 49.936 58.2007 49.9616 58.0091 49.9616C57.7536 49.9616 57.5109 49.9105 57.2809 49.821L57.4087 49.3096C57.5237 49.3607 57.6897 49.3863 57.9069 49.3863C58.0091 49.3863 58.1113 49.3735 58.2007 49.3352C58.2901 49.2968 58.3923 49.2073 58.5073 49.0411C58.6223 48.8877 58.7245 48.6704 58.8011 48.3891C58.8778 48.1079 58.9416 47.7115 58.9927 47.1746C59.0438 46.6377 59.0821 46.0112 59.0821 45.2825V44.2597H62.7229V49.8977H62.0842V49.8849ZM69.8894 49.1306C69.3529 49.7059 68.663 49.9872 67.8199 49.9872C66.9768 49.9872 66.2998 49.7059 65.7632 49.1306C65.2267 48.5681 64.9584 47.8777 64.9584 47.0723C64.9584 46.2669 65.2267 45.5893 65.776 45.014C66.3253 44.4387 67.0023 44.1575 67.8455 44.1575C68.6886 44.1575 69.3656 44.4387 69.9022 45.014C70.4387 45.5893 70.707 46.2669 70.707 47.0723C70.6942 47.865 70.4259 48.5553 69.8894 49.1306ZM69.404 45.4231C68.9824 44.9757 68.4586 44.7456 67.8199 44.7456C67.1812 44.7456 66.6574 44.9757 66.2359 45.4231C65.8143 45.8706 65.6099 46.4203 65.6099 47.0851C65.6099 47.7371 65.8143 48.2869 66.2359 48.7343C66.6574 49.1818 67.1812 49.4119 67.8199 49.4119C68.4586 49.4119 68.9824 49.1818 69.404 48.7343C69.8255 48.2869 70.0299 47.7371 70.0299 47.0723C70.0427 46.4203 69.8255 45.8706 69.404 45.4231ZM73.5685 44.835V49.8977H72.9297V44.2597H76.5194V44.835H73.5685ZM82.5362 49.8849V45.2058L79.1765 49.8849H78.5633V44.247H79.202V48.9261L82.5617 44.247H83.1621V49.8849H82.5362ZM88.2336 44.7456C87.6076 44.7456 87.0967 44.9629 86.6751 45.4103C86.2535 45.8578 86.0491 46.4075 86.0491 47.0723C86.0491 47.7243 86.2535 48.2741 86.6751 48.7343C87.0967 49.1818 87.6076 49.4119 88.2336 49.4119C88.6041 49.4119 88.9234 49.348 89.2045 49.2073C89.4855 49.0795 89.7665 48.8749 90.0604 48.5937L90.4819 49.0411C90.1625 49.3607 89.8304 49.5909 89.4855 49.7571C89.1406 49.9233 88.719 50 88.2336 50C87.4288 50 86.7518 49.7187 86.2152 49.1562C85.6787 48.5937 85.4104 47.9033 85.4104 47.0851C85.4104 46.2797 85.6787 45.5893 86.228 45.014C86.7645 44.4515 87.4544 44.1575 88.2591 44.1575C88.7318 44.1575 89.1278 44.2342 89.4727 44.3876C89.8176 44.541 90.1242 44.7711 90.4436 45.0652L90.022 45.5126C89.4727 45.0012 88.8723 44.7456 88.2336 44.7456ZM94.6975 44.835V49.8977H94.0588V44.835H92.1682V44.2597H96.6009V44.835H94.6975ZM102.656 49.8849V45.2058L99.2963 49.8849H98.6704V44.247H99.3091V48.9261L102.669 44.247H103.269V49.8849H102.656ZM110.563 49.8849H109.771L107.613 47.149L106.412 48.3636V49.8849H105.773V44.247H106.412V47.6221L109.644 44.247H110.461L108.047 46.7144L110.563 49.8849ZM117.091 49.8849L116.427 48.3891H113.361L112.697 49.8849H112.045L114.613 44.2086H115.213L117.781 49.8849H117.091ZM114.907 44.9501L113.617 47.8266H116.184L114.907 44.9501Z" fill="#FFB905"/>
<path d="M49.9612 12.631L43.5229 6.67348C43.5229 6.67348 42.6159 5.54845 39.8182 5.54845C37.0334 5.54845 31.502 5.54845 31.502 5.54845V0H39.0134C39.0134 0 42.9352 0.268474 44.647 0.856558C46.3588 1.44464 47.5468 2.03273 48.8371 3.43902C50.1273 4.84531 51.2003 6.60956 51.2003 8.11813C51.2003 9.62669 50.3955 11.7745 49.9612 12.631ZM51.2003 26.809L43.6889 20.0332C43.6889 20.0332 42.2965 18.8571 39.0134 18.8571H34.6701V13.8072H49.3225C49.3225 13.8072 47.879 15.482 45.9372 16.1723C45.9372 16.1723 52.0051 16.8755 52.0051 22.7819C52.0051 22.7819 52.0562 25.0959 51.2003 26.809ZM46.576 31.9739C44.4809 32.8816 41.7983 33.4186 39.6522 33.4186C37.5061 33.4186 31.4893 33.4186 31.4893 33.4186V28.0235H50.7532C50.766 28.0235 48.671 31.0534 46.576 31.9739Z" fill="#FFB905"/>
<path d="M79.8534 26.8985V6.34109H70.7324L64.0769 0H86.9944V33.4186L79.8534 26.8985ZM69.9276 19.5091C69.4933 23.3188 68.6885 27.3587 67.3471 29.3915C66.0058 31.437 65.035 32.2935 63.4892 33.4186L56.7188 27.2948C56.7188 27.2948 59.6697 27.1925 60.4234 26.3232C61.1771 25.4666 62.5695 23.8558 63.1571 19.4963C63.7447 15.1496 63.7447 7.93915 63.7447 7.93915H70.4003C70.413 7.95193 70.3492 15.6865 69.9276 19.5091Z" fill="#FFB905"/>
</svg>
