<svg width="57" height="25" viewBox="0 0 57 25" fill="none" xmlns="http://www.w3.org/2000/svg">
<path d="M1.51147 23.4979C1.68351 23.5491 1.82483 23.6385 1.92313 23.7536C2.02759 23.8687 2.07674 24.0157 2.07674 24.1947C2.07674 24.4248 1.99072 24.6165 1.81254 24.77C1.63436 24.9234 1.40702 25.0001 1.13053 25.0001C0.694295 25.0001 0.319498 24.8467 0 24.5462L0.184326 24.3225C0.460815 24.591 0.774169 24.7252 1.13668 24.7252C1.30871 24.7252 1.45618 24.6741 1.5852 24.5718C1.70809 24.4695 1.76953 24.3417 1.76953 24.1819C1.76953 24.0093 1.70194 23.8751 1.56677 23.792C1.4316 23.7089 1.25342 23.6641 1.03837 23.6641H0.737304V23.3956H1.03837C1.23498 23.3956 1.39473 23.3509 1.51762 23.255C1.6405 23.1591 1.70194 23.0313 1.70194 22.8651C1.70194 22.7181 1.64665 22.603 1.52991 22.5071C1.41317 22.4113 1.26571 22.3665 1.09367 22.3665C0.786457 22.3665 0.522257 22.4752 0.294922 22.6861L0.11674 22.4624C0.258056 22.3345 0.405517 22.2451 0.559122 22.1811C0.712727 22.1172 0.890909 22.0916 1.09981 22.0916C1.37016 22.0916 1.5852 22.162 1.75724 22.3026C1.92928 22.4432 2.0153 22.6222 2.0153 22.8395C2.00301 23.1527 1.83712 23.3765 1.51147 23.4979ZM5.29016 24.9425L4.97066 24.1947H3.49605L3.17655 24.9425H2.8632L4.09818 22.1044H4.38696L5.62194 24.9425H5.29016ZM4.2395 22.4752L3.61893 23.9134H4.85392L4.2395 22.4752ZM8.41141 24.9425V22.4113H6.88765V24.9425H6.58044V22.1236H8.71862V24.9425H8.41141ZM11.6064 24.9425V23.7344C11.4897 23.8047 11.3483 23.8687 11.1886 23.9262C11.0288 23.9837 10.8875 24.0093 10.7646 24.0093C10.4943 24.0093 10.2854 23.939 10.1256 23.7983C9.96589 23.6577 9.89216 23.4532 9.89216 23.1847V22.1236H10.1994V23.1336C10.1994 23.3125 10.2485 23.4532 10.353 23.5618C10.4574 23.6641 10.6049 23.7216 10.7892 23.7216C11.0411 23.7216 11.3115 23.6321 11.6125 23.4468V22.1236H11.9197V24.9425H11.6064ZM15.3605 24.9425L15.041 24.1947H13.5664L13.2469 24.9425H12.9335L14.1685 22.1044H14.4573L15.6923 24.9425H15.3605ZM14.3037 22.4752L13.6831 23.9134H14.9181L14.3037 22.4752ZM17.8182 22.3729C17.5171 22.3729 17.2713 22.4816 17.0686 22.7053C16.8658 22.929 16.7675 23.2039 16.7675 23.5363C16.7675 23.8623 16.8658 24.1371 17.0686 24.3672C17.2713 24.591 17.5171 24.706 17.8182 24.706C17.9964 24.706 18.15 24.6741 18.2851 24.6038C18.4203 24.5398 18.5555 24.4376 18.6968 24.2969L18.8996 24.5207C18.746 24.6805 18.5862 24.7955 18.4203 24.8786C18.2544 24.9617 18.0517 25.0001 17.8182 25.0001C17.4311 25.0001 17.1055 24.8594 16.8474 24.5782C16.5893 24.2969 16.4603 23.9518 16.4603 23.5427C16.4603 23.14 16.5893 22.7948 16.8535 22.5071C17.1177 22.2195 17.4434 22.0789 17.8305 22.0789C18.0578 22.0789 18.2483 22.1172 18.408 22.1939C18.5678 22.2706 18.7214 22.3857 18.875 22.5327L18.6722 22.7564C18.408 22.5007 18.1254 22.3729 17.8182 22.3729ZM20.9271 22.4176V24.9489H20.6199V22.4176H19.7106V22.13H21.8426V22.4176H20.9271ZM24.6137 24.706C24.4293 24.8658 24.1897 24.9489 23.8825 24.9489H22.8441V22.13H23.1513V23.2231H23.8333C24.1467 23.2231 24.3986 23.2934 24.5952 23.4276C24.7918 23.5618 24.8902 23.7728 24.8902 24.054C24.884 24.3225 24.7918 24.5398 24.6137 24.706ZM24.3863 23.6449C24.2573 23.5491 24.0791 23.5043 23.8518 23.5043H23.1452V24.6549H23.8702C24.0914 24.6549 24.2634 24.6038 24.3925 24.5015C24.5154 24.3992 24.5829 24.2522 24.5829 24.054C24.5829 23.8751 24.5154 23.7408 24.3863 23.6449ZM25.8056 23.9006V23.5746H26.8809V23.9006H25.8056ZM29.8608 24.9425V22.4113H28.7057V22.7181C28.7057 23.1016 28.6934 23.4276 28.6627 23.7089C28.632 23.9901 28.5951 24.2074 28.546 24.3672C28.4968 24.5271 28.4354 24.6549 28.3616 24.7508C28.2879 24.8467 28.2142 24.9042 28.1466 24.9362C28.079 24.9681 27.993 24.9809 27.9008 24.9809C27.7779 24.9809 27.6612 24.9553 27.5506 24.9106L27.612 24.6549C27.6673 24.6805 27.7472 24.6932 27.8517 24.6932C27.9008 24.6932 27.95 24.6869 27.993 24.6677C28.036 24.6485 28.0851 24.6038 28.1404 24.5207C28.1957 24.444 28.2449 24.3353 28.2817 24.1947C28.3186 24.054 28.3493 23.8559 28.3739 23.5874C28.3985 23.3189 28.4169 23.0057 28.4169 22.6414V22.13H30.168V24.9489H29.8608V24.9425ZM33.6149 24.5654C33.3569 24.8531 33.0251 24.9937 32.6196 24.9937C32.214 24.9937 31.8884 24.8531 31.6303 24.5654C31.3723 24.2841 31.2433 23.939 31.2433 23.5363C31.2433 23.1336 31.3723 22.7948 31.6365 22.5071C31.9007 22.2195 32.2263 22.0789 32.6318 22.0789C33.0374 22.0789 33.363 22.2195 33.6211 22.5071C33.8791 22.7948 34.0081 23.1336 34.0081 23.5363C34.002 23.9326 33.873 24.2778 33.6149 24.5654ZM33.3814 22.7117C33.1787 22.488 32.9268 22.3729 32.6196 22.3729C32.3123 22.3729 32.0604 22.488 31.8577 22.7117C31.6549 22.9354 31.5566 23.2103 31.5566 23.5427C31.5566 23.8687 31.6549 24.1435 31.8577 24.3672C32.0604 24.591 32.3123 24.706 32.6196 24.706C32.9268 24.706 33.1787 24.591 33.3814 24.3672C33.5842 24.1435 33.6825 23.8687 33.6825 23.5363C33.6886 23.2103 33.5842 22.9354 33.3814 22.7117ZM35.3844 22.4176V24.9489H35.0772V22.13H36.8038V22.4176H35.3844ZM39.6977 24.9425V22.603L38.0817 24.9425H37.7868V22.1236H38.094V24.4631L39.71 22.1236H39.9987V24.9425H39.6977ZM42.438 22.3729C42.1369 22.3729 41.8912 22.4816 41.6884 22.7053C41.4856 22.929 41.3873 23.2039 41.3873 23.5363C41.3873 23.8623 41.4856 24.1371 41.6884 24.3672C41.8912 24.591 42.1369 24.706 42.438 24.706C42.6162 24.706 42.7698 24.6741 42.9049 24.6038C43.0401 24.5398 43.1753 24.4376 43.3166 24.2969L43.5194 24.5207C43.3658 24.6805 43.206 24.7955 43.0401 24.8786C42.8742 24.9617 42.6715 25.0001 42.438 25.0001C42.0509 25.0001 41.7253 24.8594 41.4672 24.5782C41.2091 24.2969 41.0801 23.9518 41.0801 23.5427C41.0801 23.14 41.2091 22.7948 41.4733 22.5071C41.7314 22.2259 42.0632 22.0789 42.4503 22.0789C42.6776 22.0789 42.8681 22.1172 43.034 22.1939C43.1999 22.2706 43.3473 22.3857 43.5009 22.5327L43.2982 22.7564C43.034 22.5007 42.7452 22.3729 42.438 22.3729ZM45.547 22.4176V24.9489H45.2397V22.4176H44.3304V22.13H46.4624V22.4176H45.547ZM49.3748 24.9425V22.603L47.7589 24.9425H47.4578V22.1236H47.765V24.4631L49.3809 22.1236H49.6697V24.9425H49.3748ZM53.178 24.9425H52.7971L51.7587 23.5746L51.1812 24.1819V24.9425H50.874V22.1236H51.1812V23.8111L52.7357 22.1236H53.1289L51.9676 23.3573L53.178 24.9425ZM56.3177 24.9425L55.9982 24.1947H54.5236L54.2041 24.9425H53.8908L55.1258 22.1044H55.4145L56.6495 24.9425H56.3177ZM55.2671 22.4752L54.6465 23.9134H55.8815L55.2671 22.4752Z" fill="#FFB905"/>
<path d="M24.029 6.31546L20.9324 3.33671C20.9324 3.33671 20.4961 2.7742 19.1505 2.7742C17.8111 2.7742 15.1507 2.7742 15.1507 2.7742V0H18.7635C18.7635 0 20.6497 0.134236 21.4731 0.428275C22.2964 0.722315 22.8678 1.01635 23.4884 1.71949C24.1089 2.42263 24.625 3.30475 24.625 4.05903C24.625 4.8133 24.2379 5.88719 24.029 6.31546ZM24.625 13.4044L21.0122 10.0165C21.0122 10.0165 20.3425 9.42844 18.7635 9.42844H16.6744V6.90354H23.7218C23.7218 6.90354 23.0275 7.74091 22.0936 8.08609C22.0936 8.08609 25.0121 8.43766 25.0121 11.3908C25.0121 11.3908 25.0367 12.5478 24.625 13.4044ZM22.4008 15.9868C21.3932 16.4407 20.1029 16.7091 19.0707 16.7091C18.0384 16.7091 15.1445 16.7091 15.1445 16.7091V14.0116H24.41C24.4161 14.0116 23.4085 15.5266 22.4008 15.9868Z" fill="#FFB905"/>
<path d="M38.4074 13.4491V3.17051H34.0205L30.8193 0H41.842V16.7091L38.4074 13.4491ZM33.6334 9.75445C33.4245 11.6593 33.0374 13.6792 32.3922 14.6956C31.7471 15.7183 31.2801 16.1466 30.5367 16.7091L27.2803 13.6473C27.2803 13.6473 28.6996 13.5961 29.0621 13.1615C29.4246 12.7332 30.0943 11.9278 30.377 9.74805C30.6596 7.57472 30.6596 3.96954 30.6596 3.96954H33.8607C33.8669 3.97593 33.8361 7.84319 33.6334 9.75445Z" fill="#FFB905"/>
</svg>
