<svg width="100" height="40" viewBox="0 0 100 40" fill="none" xmlns="http://www.w3.org/2000/svg">
<path d="M2.66811 37.5967C2.9718 37.6785 3.22126 37.8217 3.39479 38.0058C3.57918 38.1899 3.66594 38.4251 3.66594 38.7115C3.66594 39.0797 3.5141 39.3865 3.19957 39.632C2.88503 39.8774 2.48373 40.0002 1.99566 40.0002C1.2256 40.0002 0.563991 39.7547 0 39.274L0.32538 38.916C0.813449 39.3456 1.36659 39.5604 2.00651 39.5604C2.3102 39.5604 2.5705 39.4785 2.79826 39.3149C3.01518 39.1513 3.12364 38.9467 3.12364 38.691C3.12364 38.4149 3.00434 38.2001 2.76573 38.0672C2.52711 37.9342 2.21258 37.8626 1.83297 37.8626H1.30152V37.433H1.83297C2.18004 37.433 2.46204 37.3614 2.67896 37.208C2.89588 37.0546 3.00434 36.8501 3.00434 36.5842C3.00434 36.3489 2.90672 36.1648 2.70065 36.0114C2.49458 35.858 2.23427 35.7864 1.93059 35.7864C1.38829 35.7864 0.921909 35.9603 0.520607 36.2978L0.206074 35.9398C0.455532 35.7353 0.715835 35.5921 0.986985 35.4898C1.25813 35.3875 1.57267 35.3466 1.94143 35.3466C2.41866 35.3466 2.79826 35.4591 3.10195 35.6841C3.40564 35.9091 3.55748 36.1955 3.55748 36.5432C3.53579 37.0444 3.24295 37.4024 2.66811 37.5967ZM9.33839 39.9081L8.7744 38.7115H6.17137L5.60737 39.9081H5.05423L7.23427 35.3671H7.74403L9.92408 39.9081H9.33839ZM7.48373 35.9603L6.38829 38.2615H8.56833L7.48373 35.9603ZM14.8482 39.9081V35.858H12.1584V39.9081H11.6161V35.3978H15.3905V39.9081H14.8482ZM20.4881 39.9081V37.9751C20.282 38.0876 20.0325 38.1899 19.7505 38.2819C19.4685 38.374 19.2191 38.4149 19.0022 38.4149C18.5249 38.4149 18.1562 38.3024 17.8742 38.0774C17.5922 37.8524 17.462 37.5251 17.462 37.0955V35.3978H18.0043V37.0137C18.0043 37.3001 18.0911 37.5251 18.2755 37.699C18.4599 37.8626 18.7202 37.9546 19.0456 37.9546C19.4902 37.9546 19.9675 37.8115 20.4989 37.5149V35.3978H21.0412V39.9081H20.4881ZM27.115 39.9081L26.551 38.7115H23.9479L23.3839 39.9081H22.8308L25.0108 35.3671H25.5206L27.7006 39.9081H27.115ZM25.2495 35.9603L24.154 38.2615H26.3341L25.2495 35.9603ZM31.4534 35.7966C30.9219 35.7966 30.4881 35.9705 30.1301 36.3285C29.7722 36.6864 29.5987 37.1262 29.5987 37.6581C29.5987 38.1797 29.7722 38.6194 30.1301 38.9876C30.4881 39.3456 30.9219 39.5297 31.4534 39.5297C31.7679 39.5297 32.039 39.4785 32.2777 39.366C32.5163 39.2638 32.7549 39.1001 33.0043 38.8751L33.3623 39.2331C33.0911 39.4888 32.8091 39.6729 32.5163 39.8058C32.2234 39.9388 31.8655 40.0002 31.4534 40.0002C30.7701 40.0002 30.1952 39.7751 29.7397 39.3251C29.2842 38.8751 29.0564 38.3228 29.0564 37.6683C29.0564 37.0239 29.2842 36.4717 29.7505 36.0114C30.2169 35.5512 30.7918 35.3262 31.4751 35.3262C31.8764 35.3262 32.2126 35.3875 32.4946 35.5103C32.7766 35.633 33.0477 35.8171 33.3189 36.0523L32.961 36.4103C32.4946 36.0012 31.9957 35.7966 31.4534 35.7966ZM36.9414 35.8682V39.9183H36.3991V35.8682H34.7939V35.408H38.5575V35.8682H36.9414ZM43.449 39.5297C43.1236 39.7854 42.7007 39.9183 42.1584 39.9183H40.3254V35.408H40.8677V37.1569H42.0716C42.6247 37.1569 43.0694 37.2694 43.4165 37.4842C43.7636 37.699 43.9371 38.0365 43.9371 38.4865C43.9262 38.916 43.7636 39.2638 43.449 39.5297ZM43.0477 37.8319C42.82 37.6785 42.5054 37.6069 42.1041 37.6069H40.8568V39.4479H42.1367C42.5271 39.4479 42.8308 39.366 43.0586 39.2024C43.2755 39.0388 43.3948 38.8035 43.3948 38.4865C43.3948 38.2001 43.2755 37.9853 43.0477 37.8319ZM45.5531 38.241V37.7194H47.4512V38.241H45.5531ZM52.7115 39.9081V35.858H50.6725V36.3489C50.6725 36.9626 50.6508 37.4842 50.5965 37.9342C50.5423 38.3842 50.4772 38.7319 50.3905 38.9876C50.3037 39.2433 50.1952 39.4479 50.0651 39.6013C49.9349 39.7547 49.8048 39.8467 49.6855 39.8979C49.5662 39.949 49.4143 39.9695 49.2516 39.9695C49.0347 39.9695 48.8286 39.9286 48.6334 39.857L48.7419 39.4479C48.8395 39.4888 48.9805 39.5092 49.1649 39.5092C49.2516 39.5092 49.3384 39.499 49.4143 39.4683C49.4902 39.4376 49.577 39.366 49.6746 39.2331C49.7722 39.1104 49.859 38.9365 49.9241 38.7115C49.9892 38.4865 50.0434 38.1694 50.0868 37.7399C50.1301 37.3103 50.1627 36.8092 50.1627 36.2262V35.408H53.2538V39.9183H52.7115V39.9081ZM59.3384 39.3047C58.8829 39.7649 58.2972 39.9899 57.5813 39.9899C56.8655 39.9899 56.2907 39.7649 55.8351 39.3047C55.3796 38.8547 55.1518 38.3024 55.1518 37.6581C55.1518 37.0137 55.3796 36.4717 55.846 36.0114C56.3124 35.5512 56.8872 35.3262 57.603 35.3262C58.3189 35.3262 58.8937 35.5512 59.3492 36.0114C59.8048 36.4717 60.0325 37.0137 60.0325 37.6581C60.0217 38.2922 59.7939 38.8444 59.3384 39.3047ZM58.9262 36.3387C58.5683 35.9807 58.1236 35.7966 57.5813 35.7966C57.039 35.7966 56.5944 35.9807 56.2364 36.3387C55.8785 36.6967 55.705 37.1364 55.705 37.6683C55.705 38.1899 55.8785 38.6297 56.2364 38.9876C56.5944 39.3456 57.039 39.5297 57.5813 39.5297C58.1236 39.5297 58.5683 39.3456 58.9262 38.9876C59.2842 38.6297 59.4577 38.1899 59.4577 37.6581C59.4685 37.1364 59.2842 36.6967 58.9262 36.3387ZM62.462 35.8682V39.9183H61.9197V35.408H64.9675V35.8682H62.462ZM70.0759 39.9081V36.1648L67.2234 39.9081H66.7028V35.3978H67.2451V39.141L70.0976 35.3978H70.6074V39.9081H70.0759ZM74.9132 35.7966C74.3818 35.7966 73.9479 35.9705 73.59 36.3285C73.2321 36.6864 73.0586 37.1262 73.0586 37.6581C73.0586 38.1797 73.2321 38.6194 73.59 38.9876C73.9479 39.3456 74.3818 39.5297 74.9132 39.5297C75.2278 39.5297 75.4989 39.4785 75.7375 39.366C75.9761 39.2638 76.2148 39.1001 76.4642 38.8751L76.8221 39.2331C76.551 39.4888 76.269 39.6729 75.9761 39.8058C75.6833 39.9388 75.3254 40.0002 74.9132 40.0002C74.2299 40.0002 73.6551 39.7751 73.1996 39.3251C72.744 38.8751 72.5163 38.3228 72.5163 37.6683C72.5163 37.0239 72.744 36.4717 73.2104 36.0114C73.6659 35.5614 74.2516 35.3262 74.9349 35.3262C75.3362 35.3262 75.6725 35.3875 75.9653 35.5103C76.2581 35.633 76.5184 35.8171 76.7896 36.0523L76.4317 36.4103C75.9653 36.0012 75.4555 35.7966 74.9132 35.7966ZM80.4013 35.8682V39.9183H79.859V35.8682H78.2538V35.408H82.0174V35.8682H80.4013ZM87.1583 39.9081V36.1648L84.3059 39.9081H83.7744V35.3978H84.3167V39.141L87.1692 35.3978H87.679V39.9081H87.1583ZM93.872 39.9081H93.1996L91.3666 37.7194L90.3471 38.691V39.9081H89.8048V35.3978H90.3471V38.0978L93.0911 35.3978H93.7852L91.7354 37.3717L93.872 39.9081ZM99.4143 39.9081L98.8503 38.7115H96.2473L95.6833 39.9081H95.1301L97.3102 35.3671H97.82L100 39.9081H99.4143ZM97.5597 35.9603L96.4642 38.2615H98.6442L97.5597 35.9603Z" fill="#FFB905"/>
<path d="M42.4186 10.1048L36.9523 5.33878C36.9523 5.33878 36.1822 4.43875 33.8069 4.43875C31.4425 4.43875 26.7462 4.43875 26.7462 4.43875V0H33.1236C33.1236 0 36.4534 0.214779 37.9067 0.685246C39.3601 1.15571 40.3688 1.62618 41.4642 2.75121C42.5596 3.87624 43.4707 5.28764 43.4707 6.49449C43.4707 7.70134 42.7874 9.41957 42.4186 10.1048ZM43.4707 21.4472L37.0933 16.0266C37.0933 16.0266 35.9111 15.0856 33.1236 15.0856H29.436V11.0457H41.8763C41.8763 11.0457 40.6507 12.3856 39.0022 12.9378C39.0022 12.9378 44.154 13.5004 44.154 18.2255C44.154 18.2255 44.1974 20.0767 43.4707 21.4472ZM39.5445 25.5791C37.7657 26.3052 35.4881 26.7348 33.6659 26.7348C31.8438 26.7348 26.7354 26.7348 26.7354 26.7348V22.4188H43.0911C43.1019 22.4188 41.3232 24.8427 39.5445 25.5791Z" fill="#FFB905"/>
<path d="M67.7983 21.5188V5.07286H60.0543L54.4035 0H73.8612V26.7348L67.7983 21.5188ZM59.371 15.6072C59.0022 18.655 58.3189 21.8869 57.1801 23.5131C56.0413 25.1495 55.217 25.8348 53.9046 26.7348L48.1562 21.8358C48.1562 21.8358 50.6617 21.754 51.3016 21.0585C51.9415 20.3733 53.1237 19.0846 53.6226 15.597C54.1215 12.1196 54.1215 6.3513 54.1215 6.3513H59.7723C59.7831 6.36153 59.7289 12.5492 59.371 15.6072Z" fill="#FFB905"/>
</svg>
