<svg width="68" height="30" viewBox="0 0 68 30" fill="none" xmlns="http://www.w3.org/2000/svg">
<path d="M1.81377 28.1975C2.02021 28.2589 2.18979 28.3663 2.30776 28.5043C2.4331 28.6424 2.49209 28.8188 2.49209 29.0336C2.49209 29.3097 2.38886 29.5399 2.17505 29.7239C1.96123 29.908 1.68843 30.0001 1.35664 30.0001C0.833154 30.0001 0.383398 29.816 0 29.4555L0.221191 29.187C0.552978 29.5092 0.929003 29.6702 1.36401 29.6702C1.57046 29.6702 1.74741 29.6089 1.90224 29.4862C2.0497 29.3634 2.12344 29.21 2.12344 29.0182C2.12344 28.8111 2.04233 28.6501 1.88013 28.5503C1.71792 28.4506 1.5041 28.3969 1.24604 28.3969H0.884765V28.0748H1.24604C1.48198 28.0748 1.67368 28.0211 1.82114 27.906C1.9686 27.791 2.04233 27.6375 2.04233 27.4381C2.04233 27.2617 1.97597 27.1236 1.83589 27.0086C1.6958 26.8935 1.51885 26.8398 1.3124 26.8398C0.943749 26.8398 0.626708 26.9702 0.353906 27.2233L0.140088 26.9549C0.309668 26.8015 0.48662 26.6941 0.670946 26.6174C0.855272 26.5407 1.06909 26.51 1.31977 26.51C1.64419 26.51 1.90224 26.5943 2.10869 26.7631C2.31513 26.9319 2.41836 27.1466 2.41836 27.4074C2.40361 27.7833 2.20454 28.0518 1.81377 28.1975ZM6.34819 29.9311L5.96479 29.0336H4.19526L3.81186 29.9311H3.43584L4.91782 26.5253H5.26435L6.74633 29.9311H6.34819ZM5.0874 26.9702L4.34272 28.6961H5.8247L5.0874 26.9702ZM10.0937 29.9311V26.8935H8.26518V29.9311H7.89653V26.5483H10.4623V29.9311H10.0937ZM13.9277 29.9311V28.4813C13.7876 28.5657 13.618 28.6424 13.4263 28.7114C13.2346 28.7805 13.065 28.8111 12.9176 28.8111C12.5932 28.8111 12.3425 28.7268 12.1508 28.558C11.9591 28.3893 11.8706 28.1438 11.8706 27.8216V26.5483H12.2392V27.7603C12.2392 27.9751 12.2982 28.1438 12.4236 28.2742C12.5489 28.3969 12.7259 28.466 12.9471 28.466C13.2494 28.466 13.5738 28.3586 13.935 28.1361V26.5483H14.3037V29.9311H13.9277ZM18.4326 29.9311L18.0492 29.0336H16.2797L15.8963 29.9311H15.5202L17.0022 26.5253H17.3488L18.8307 29.9311H18.4326ZM17.1644 26.9702L16.4198 28.6961H17.9017L17.1644 26.9702ZM21.3818 26.8475C21.0205 26.8475 20.7256 26.9779 20.4823 27.2463C20.239 27.5148 20.121 27.8447 20.121 28.2435C20.121 28.6347 20.239 28.9646 20.4823 29.2407C20.7256 29.5092 21.0205 29.6472 21.3818 29.6472C21.5956 29.6472 21.78 29.6089 21.9422 29.5245C22.1044 29.4478 22.2666 29.3251 22.4362 29.1563L22.6795 29.4248C22.4951 29.6166 22.3034 29.7546 22.1044 29.8543C21.9053 29.9541 21.662 30.0001 21.3818 30.0001C20.9173 30.0001 20.5265 29.8313 20.2169 29.4938C19.9072 29.1563 19.7524 28.7421 19.7524 28.2512C19.7524 27.7679 19.9072 27.3537 20.2242 27.0086C20.5413 26.6634 20.9321 26.4946 21.3966 26.4946C21.6694 26.4946 21.8979 26.5407 22.0896 26.6327C22.2813 26.7247 22.4657 26.8628 22.65 27.0392L22.4067 27.3077C22.0896 27.0009 21.7505 26.8475 21.3818 26.8475ZM25.1126 26.9012V29.9387H24.7439V26.9012H23.6527V26.556H26.2112V26.9012H25.1126ZM29.5364 29.6472C29.3152 29.839 29.0277 29.9387 28.659 29.9387H27.413V26.556H27.7816V27.8677H28.6C28.976 27.8677 29.2783 27.952 29.5143 28.1131C29.7502 28.2742 29.8682 28.5273 29.8682 28.8648C29.8608 29.187 29.7502 29.4478 29.5364 29.6472ZM29.2636 28.3739C29.1088 28.2589 28.8949 28.2052 28.6221 28.2052H27.7742V29.5859H28.6443C28.9097 29.5859 29.1161 29.5245 29.271 29.4018C29.4184 29.279 29.4995 29.1026 29.4995 28.8648C29.4995 28.6501 29.4184 28.489 29.2636 28.3739ZM30.9668 28.6807V28.2895H32.257V28.6807H30.9668ZM35.833 29.9311V26.8935H34.4468V27.2617C34.4468 27.7219 34.4321 28.1131 34.3952 28.4506C34.3584 28.7881 34.3141 29.0489 34.2551 29.2407C34.1962 29.4325 34.1224 29.5859 34.034 29.7009C33.9455 29.816 33.857 29.885 33.7759 29.9234C33.6948 29.9617 33.5916 29.9771 33.481 29.9771C33.3335 29.9771 33.1934 29.9464 33.0607 29.8927L33.1344 29.5859C33.2008 29.6166 33.2966 29.6319 33.422 29.6319C33.481 29.6319 33.54 29.6242 33.5916 29.6012C33.6432 29.5782 33.7022 29.5245 33.7685 29.4248C33.8349 29.3327 33.8939 29.2023 33.9381 29.0336C33.9823 28.8648 34.0192 28.6271 34.0487 28.3049C34.0782 27.9827 34.1003 27.6069 34.1003 27.1696V26.556H36.2016V29.9387H35.833V29.9311ZM40.3379 29.4785C40.0282 29.8237 39.6301 29.9924 39.1435 29.9924C38.6568 29.9924 38.2661 29.8237 37.9564 29.4785C37.6467 29.141 37.4919 28.7268 37.4919 28.2435C37.4919 27.7603 37.6467 27.3537 37.9638 27.0086C38.2808 26.6634 38.6716 26.4946 39.1582 26.4946C39.6448 26.4946 40.0356 26.6634 40.3453 27.0086C40.6549 27.3537 40.8098 27.7603 40.8098 28.2435C40.8024 28.7191 40.6476 29.1333 40.3379 29.4785ZM40.0577 27.254C39.8144 26.9855 39.5121 26.8475 39.1435 26.8475C38.7748 26.8475 38.4725 26.9855 38.2292 27.254C37.9859 27.5225 37.8679 27.8523 37.8679 28.2512C37.8679 28.6424 37.9859 28.9722 38.2292 29.2407C38.4725 29.5092 38.7748 29.6472 39.1435 29.6472C39.5121 29.6472 39.8144 29.5092 40.0577 29.2407C40.301 28.9722 40.419 28.6424 40.419 28.2435C40.4264 27.8523 40.301 27.5225 40.0577 27.254ZM42.4613 26.9012V29.9387H42.0927V26.556H44.1645V26.9012H42.4613ZM47.6372 29.9311V27.1236L45.6981 29.9311H45.3442V26.5483H45.7128V29.3558L47.652 26.5483H47.9985V29.9311H47.6372ZM50.9256 26.8475C50.5643 26.8475 50.2694 26.9779 50.0261 27.2463C49.7828 27.5148 49.6648 27.8447 49.6648 28.2435C49.6648 28.6347 49.7828 28.9646 50.0261 29.2407C50.2694 29.5092 50.5643 29.6472 50.9256 29.6472C51.1394 29.6472 51.3237 29.6089 51.4859 29.5245C51.6481 29.4478 51.8103 29.3251 51.9799 29.1563L52.2232 29.4248C52.0389 29.6166 51.8472 29.7546 51.6481 29.8543C51.4491 29.9541 51.2058 30.0001 50.9256 30.0001C50.4611 30.0001 50.0703 29.8313 49.7606 29.4938C49.451 29.1563 49.2961 28.7421 49.2961 28.2512C49.2961 27.7679 49.451 27.3537 49.768 27.0086C50.0777 26.6711 50.4758 26.4946 50.9403 26.4946C51.2131 26.4946 51.4417 26.5407 51.6408 26.6327C51.8398 26.7247 52.0168 26.8628 52.2011 27.0392L51.9578 27.3077C51.6408 27.0009 51.2942 26.8475 50.9256 26.8475ZM54.6563 26.9012V29.9387H54.2877V26.9012H53.1965V26.556H55.7549V26.9012H54.6563ZM59.2497 29.9311V27.1236L57.3106 29.9311H56.9494V26.5483H57.318V29.3558L59.2571 26.5483H59.6037V29.9311H59.2497ZM63.8137 29.9311H63.3565L62.1105 28.2895L61.4174 29.0182V29.9311H61.0488V26.5483H61.4174V28.5734L63.2828 26.5483H63.7547L62.3612 28.0287L63.8137 29.9311ZM67.5813 29.9311L67.1979 29.0336H65.4284L65.045 29.9311H64.6689L66.1509 26.5253H66.4974L67.9794 29.9311H67.5813ZM66.3205 26.9702L65.5758 28.6961H67.0578L66.3205 26.9702Z" fill="#FFB905"/>
<path d="M28.8362 7.57855L25.1202 4.00405C25.1202 4.00405 24.5967 3.32904 22.982 3.32904C21.3747 3.32904 18.1822 3.32904 18.1822 3.32904V0H22.5175C22.5175 0 24.781 0.161083 25.769 0.51393C26.757 0.866778 27.4427 1.21963 28.1874 2.06339C28.9321 2.90716 29.5514 3.9657 29.5514 4.87083C29.5514 5.77596 29.0869 7.06462 28.8362 7.57855ZM29.5514 16.0852L25.2161 12.0198C25.2161 12.0198 24.4124 11.3141 22.5175 11.3141H20.0107V8.28425H28.4676C28.4676 8.28425 27.6344 9.2891 26.5137 9.70331C26.5137 9.70331 30.0159 10.1252 30.0159 13.669C30.0159 13.669 30.0454 15.0574 29.5514 16.0852ZM26.8824 19.1842C25.6732 19.7288 24.1248 20.0509 22.8862 20.0509C21.6475 20.0509 18.1748 20.0509 18.1748 20.0509V16.814H29.2933C29.3007 16.814 28.0915 18.6319 26.8824 19.1842Z" fill="#FFB905"/>
<path d="M46.0879 16.1389V3.80462H40.8236L36.9822 0H50.2095V20.0509L46.0879 16.1389ZM40.3591 11.7053C40.1084 13.9912 39.6439 16.4151 38.8697 17.6347C38.0956 18.862 37.5352 19.3759 36.6431 20.0509L32.7354 16.3767C32.7354 16.3767 34.4385 16.3154 34.8735 15.7938C35.3085 15.2798 36.1122 14.3133 36.4514 11.6977C36.7905 9.08966 36.7905 4.76344 36.7905 4.76344H40.6319C40.6392 4.77111 40.6024 9.41183 40.3591 11.7053Z" fill="#FFB905"/>
</svg>
