<svg width="35" height="35" viewBox="0 0 35 35" fill="none" xmlns="http://www.w3.org/2000/svg">
<g clip-path="url(#clip0)">
<path d="M34.2789 9.09819C33.8754 7.59883 32.6933 6.41696 31.1942 6.01322C28.4553 5.26367 17.4997 5.26367 17.4997 5.26367C17.4997 5.26367 6.54431 5.26367 3.80541 5.98465C2.33516 6.38813 1.12419 7.5991 0.720708 9.09819C0 11.8368 0 17.5165 0 17.5165C0 17.5165 0 23.2248 0.720708 25.9348C1.12445 27.4339 2.30632 28.616 3.80568 29.0198C6.57315 29.7693 17.4999 29.7693 17.4999 29.7693C17.4999 29.7693 28.4553 29.7693 31.1942 29.0484C32.6935 28.6449 33.8754 27.4628 34.2791 25.9637C34.9999 23.2248 34.9999 17.5453 34.9999 17.5453C34.9999 17.5453 35.0287 11.8368 34.2789 9.09819Z" fill="#FF0000"/>
<path d="M14.0115 22.7638L23.1217 17.5166L14.0115 12.2695V22.7638Z" fill="white"/>
</g>
<defs>
<clipPath id="clip0">
<rect width="35" height="35" fill="white"/>
</clipPath>
</defs>
</svg>
