<svg width="36" height="26" viewBox="0 0 36 26" fill="none" xmlns="http://www.w3.org/2000/svg">
<path d="M14.4552 18.5957C14.1525 18.5957 13.8595 18.4395 13.6935 18.1563C13.4493 17.7363 13.5958 17.1992 14.0158 16.9551L21.6915 12.5117L15.3341 8.73245V13.5567C15.3341 14.0449 14.9435 14.4356 14.4552 14.4356C13.9669 14.4356 13.5763 14.0449 13.5763 13.5567V7.18948C13.5763 6.87698 13.7423 6.58401 14.0255 6.42776C14.3087 6.27151 14.6408 6.27151 14.9142 6.43753L23.8888 11.7793C24.1525 11.9356 24.3185 12.2285 24.3185 12.541C24.3185 12.8535 24.1525 13.1367 23.879 13.293L14.9044 18.4883C14.7579 18.5567 14.6115 18.5957 14.4552 18.5957Z" fill="#FFC32D"/>
<path d="M30.6562 25.5H4.95312C4.46484 25.5 4.07422 25.1094 4.07422 24.6211C4.07422 24.1328 4.46484 23.7422 4.95312 23.7422H30.6562C32.4141 23.7422 33.8398 22.2969 33.8398 20.5293V5.4707C33.8398 3.69336 32.4141 2.25781 30.6562 2.25781H5.38281C3.64453 2.25781 2.16992 3.73242 2.16992 5.4707V20.1387C2.16992 20.627 1.7793 21.0176 1.29102 21.0176C0.802734 21.0176 0.412109 20.627 0.412109 20.1387V5.4707C0.412109 2.72656 2.63867 0.5 5.38281 0.5H30.6562C33.3809 0.5 35.5977 2.72656 35.5977 5.4707V20.5293C35.5879 23.2734 33.3809 25.5 30.6562 25.5Z" fill="#FFC32D"/>
</svg>
